<svg id="Layer_1" data-name="Layer 1" xmlns="http://www.w3.org/2000/svg" viewBox="0 0 340.16 297.64"><defs><style>.cls-1{fill:#010101;}.cls-2{fill:#fff;}.cls-3{fill:#8dc04f;}</style></defs><title>nodejsday-big1</title><path class="cls-1" d="M28.45,284v-18.6c0-3.48-1.88-4.81-4.88-4.81a6.66,6.66,0,0,0-5.36,2.65V284H5.67V250.33H18.21v3.83c1.95-2.23,5.64-4.66,11.57-4.66,7.8,0,11.21,4.73,11.21,10.58V284Z"/><path class="cls-1" d="M46.35,267.12c0-9.4,7-17.62,18.88-17.62s19,8.22,19,17.62-7,17.7-19,17.7S46.35,276.53,46.35,267.12Zm24.95,0c0-3.69-2.16-6.55-6.07-6.55s-6,2.86-6,6.55,2.16,6.62,6,6.62S71.3,270.88,71.3,267.12Z"/><path class="cls-1" d="M111.56,284v-3.55a12.14,12.14,0,0,1-9.47,4.39c-8.16,0-14.84-6.13-14.84-17.7,0-11.15,6.55-17.62,14.84-17.62a11.84,11.84,0,0,1,9.47,4.38V237.51H124.1V284Zm0-12.54V262.8a7.28,7.28,0,0,0-5.22-2.23c-3.42,0-6.27,2.37-6.27,6.55s2.85,6.62,6.27,6.62A7.36,7.36,0,0,0,111.56,271.44Z"/><path class="cls-1" d="M129.46,267.12c0-9.75,7.46-17.62,18.33-17.62,9.89,0,17.48,7.1,17.48,18.95V271H142.42c.7,2.16,3.14,4.25,7.25,4.25,1.88,0,6.06-.9,7.73-2.37l5.16,7.74c-3.35,2.85-9.34,4.18-14.36,4.18C137.68,284.82,129.46,278.2,129.46,267.12ZM147.79,259a5.24,5.24,0,0,0-5.51,4h11.08C153,261.62,151.83,259,147.79,259Z"/><path class="cls-1" d="M159.42,295.34l3-9.27a5.71,5.71,0,0,0,4.18,1.33c2.3,0,3.7-1.68,3.7-4.88V250.33h12.54v32.19c0,8.64-4.25,15.12-14,15.12C163.74,297.64,162.13,297,159.42,295.34Zm10.1-54.48a7,7,0,1,1,7,7A7,7,0,0,1,169.52,240.86Z"/><path class="cls-1" d="M187.63,279.66l5-8.43a23.93,23.93,0,0,0,12.12,4.25c2.58,0,3.35-.62,3.35-1.46,0-3.21-19.09.9-19.09-13,0-6.06,5.29-11.49,15.05-11.49a26.48,26.48,0,0,1,14.56,4.31L214,262a16.61,16.61,0,0,0-9.9-3.49c-1.81,0-3.13.7-3.13,1.47,0,2.78,19.09-.7,19.09,13.3,0,6.69-6,11.57-16,11.57C197.94,284.82,191.26,282.66,187.63,279.66Z"/><path class="cls-1" d="M251.45,284v-5a14.18,14.18,0,0,1-11.36,5.85c-8.78,0-15-6.69-15-17.63s6.2-17.69,15-17.69a14.06,14.06,0,0,1,11.36,5.92V237.51h5.22V284Zm0-9.19V259.6a12.49,12.49,0,0,0-10-5.44c-6.83,0-10.87,5.58-10.87,13s4,13,10.87,13A12.45,12.45,0,0,0,251.45,274.79Z"/><path class="cls-1" d="M290.81,284v-5a14.18,14.18,0,0,1-11.36,5.85c-8.78,0-15-6.69-15-17.63s6.2-17.69,15-17.69a14.06,14.06,0,0,1,11.36,5.92v-5.09H296V284Zm0-9.19V259.6a12.49,12.49,0,0,0-10-5.44c-6.83,0-10.87,5.58-10.87,13s4,13,10.87,13A12.45,12.45,0,0,0,290.81,274.79Z"/><path class="cls-1" d="M304.74,292.41a8,8,0,0,0,2.86.56c2.29,0,3.83-.77,5-3.55l2.23-5.09-14.07-34h5.71l11.15,27.59,11.22-27.59h5.64l-16.86,40.48c-2,4.88-5.44,6.76-9.9,6.83a15.83,15.83,0,0,1-3.76-.49Z"/><polygon class="cls-2" points="252.93 4.38 183.69 44.35 170.08 52.22 170.08 52.22 87.23 4.38 4.38 52.22 4.38 147.88 87.23 195.71 156.46 155.74 170.08 147.88 252.93 195.71 335.77 147.88 335.77 147.88 335.77 52.22 252.93 4.38"/><path class="cls-1" d="M252.93,200.1a4.43,4.43,0,0,1-2.2-.59l-80.65-46.57L89.42,199.51a4.39,4.39,0,0,1-4.38,0L2.19,151.68A4.4,4.4,0,0,1,0,147.88V52.22a4.39,4.39,0,0,1,2.19-3.8L85,.59a4.34,4.34,0,0,1,4.38,0l80.66,46.56L250.73.59a4.36,4.36,0,0,1,4.39,0L338,48.42a4.39,4.39,0,0,1,2.19,3.8v95.66a4.4,4.4,0,0,1-2.19,3.8l-82.85,47.83A4.42,4.42,0,0,1,252.93,200.1Zm-82.85-56.6a4.38,4.38,0,0,1,2.19.58l80.66,46.57,78.46-45.3V54.75L252.93,9.45,172.27,56a4.34,4.34,0,0,1-4.38,0L87.23,9.45,8.77,54.75v90.6l78.46,45.3,80.66-46.57A4.35,4.35,0,0,1,170.08,143.5Z"/><polygon class="cls-3" points="335.77 52.22 335.77 52.22 335.77 147.88 252.93 100.05 335.77 52.22"/><path class="cls-1" d="M335.77,152.26a4.41,4.41,0,0,1-2.19-.58l-82.85-47.84a4.38,4.38,0,0,1,0-7.59l82.85-47.83a4.39,4.39,0,0,1,6.58,3.8v95.66a4.36,4.36,0,0,1-4.39,4.38Zm-74.08-52.21,69.7,40.24V59.81Z"/><polygon class="cls-3" points="87.23 100.05 4.38 147.88 4.38 52.22 87.23 100.05"/><path class="cls-1" d="M4.38,152.26A4.36,4.36,0,0,1,0,147.88V52.22a4.39,4.39,0,0,1,6.58-3.8L89.42,96.25a4.37,4.37,0,0,1,0,7.59L6.58,151.68A4.42,4.42,0,0,1,4.38,152.26ZM8.77,59.81v80.48l69.69-40.24Z"/><polygon class="cls-3" points="252.93 4.38 183.69 44.35 170.08 52.22 170.08 52.22 87.23 100.05 4.38 147.88 87.23 195.71 156.46 155.74 170.08 147.88 252.93 100.05 335.77 52.22 252.93 4.38"/><path class="cls-1" d="M87.23,200.1a4.39,4.39,0,0,1-2.19-.59L2.19,151.68a4.39,4.39,0,0,1,0-7.6L250.73.59a4.36,4.36,0,0,1,4.39,0L338,48.42A4.38,4.38,0,0,1,338,56L89.42,199.51A4.39,4.39,0,0,1,87.23,200.1ZM13.15,147.88l74.08,42.77L327,52.22,252.93,9.45Z"/><path class="cls-1" d="M310,116.52a2.76,2.76,0,1,0-3.38-2A2.76,2.76,0,0,0,310,116.52Zm6.77,3.91a2.76,2.76,0,1,0-3.39-2A2.77,2.77,0,0,0,316.74,120.43ZM305.3,77.75a2.76,2.76,0,1,0-3.38-2A2.77,2.77,0,0,0,305.3,77.75Zm15.34,35.91a2.76,2.76,0,1,0-3.38-2A2.76,2.76,0,0,0,320.64,113.66ZM306.73,83.08a2.76,2.76,0,1,0,3.38,2A2.76,2.76,0,0,0,306.73,83.08Zm-3.91,6.77a2.76,2.76,0,1,0,3.38,2A2.75,2.75,0,0,0,302.82,89.85Zm20.68,34.48a2.76,2.76,0,1,0-3.38-2A2.76,2.76,0,0,0,323.5,124.33Zm-16.39-18.48a2.76,2.76,0,1,0-3.38-1.95A2.76,2.76,0,0,0,307.11,105.85Zm-3.9,6.76a2.76,2.76,0,1,0-3.39-2A2.76,2.76,0,0,0,303.21,112.61Zm10.67-2.85a2.76,2.76,0,1,0-3.39-2A2.77,2.77,0,0,0,313.88,109.76ZM316,74.89a2.76,2.76,0,1,0-3.38-2A2.77,2.77,0,0,0,316,74.89Zm7.81-13.53a2.77,2.77,0,0,0,2-3.35l-4.6,2.65A2.75,2.75,0,0,0,323.78,61.36Zm-3.9,6.76a2.76,2.76,0,1,0-3.39-2A2.76,2.76,0,0,0,319.88,68.12ZM309.21,71a2.76,2.76,0,0,0,2-3.38,2.87,2.87,0,0,0-.45-.91L306,69.42A2.76,2.76,0,0,0,309.21,71Zm23.15,22.39a2.76,2.76,0,1,0-3.39-2A2.77,2.77,0,0,0,332.36,93.37ZM327,94.8a2.76,2.76,0,1,0,3.38,2A2.76,2.76,0,0,0,327,94.8Zm4.29,16a2.76,2.76,0,1,0-3.38-2A2.76,2.76,0,0,0,331.31,110.8Zm-3.24-33.44a2.76,2.76,0,1,0,3.38,2A2.77,2.77,0,0,0,328.07,77.36Zm5.33-1.43A2.76,2.76,0,1,0,330,74,2.77,2.77,0,0,0,333.4,75.93Zm-22.77.39a2.76,2.76,0,1,0,3.38,2A2.76,2.76,0,0,0,310.63,76.32ZM289.68,104.8a2.76,2.76,0,1,0-3.39-2A2.76,2.76,0,0,0,289.68,104.8Zm6.76,3.91a2.76,2.76,0,1,0-3.38-1.95A2.76,2.76,0,0,0,296.44,108.71Zm1.05-17.43a2.76,2.76,0,1,0-3.38-2A2.77,2.77,0,0,0,297.49,91.28Zm-16,4.28a2.76,2.76,0,1,0,3.37,2A2.77,2.77,0,0,0,281.49,95.56ZM293.58,98a2.76,2.76,0,1,0-3.38-2A2.76,2.76,0,0,0,293.58,98Zm37-32.78a2.76,2.76,0,1,0-3.39-2A2.76,2.76,0,0,0,330.55,65.26ZM286.82,94.13a2.76,2.76,0,1,0-3.38-1.95A2.76,2.76,0,0,0,286.82,94.13ZM326,112.23a2.76,2.76,0,1,0,3.38,2A2.77,2.77,0,0,0,326,112.23ZM309.59,93.75a2.76,2.76,0,1,0,3.38,2A2.77,2.77,0,0,0,309.59,93.75Zm17.29,32.54a2.76,2.76,0,1,0,2-3.39A2.76,2.76,0,0,0,326.88,126.29Zm-1.29-36.83a2.76,2.76,0,1,0-3.38-1.95A2.76,2.76,0,0,0,325.59,89.46Zm-8.19-9.24a2.76,2.76,0,1,0,3.38,2A2.77,2.77,0,0,0,317.4,80.22Zm-1,17.44a2.76,2.76,0,1,0,3.38,2A2.76,2.76,0,0,0,316.35,97.66ZM313.49,87a2.76,2.76,0,1,0,3.38,2A2.76,2.76,0,0,0,313.49,87Zm-13.14,15a2.76,2.76,0,1,0-3.39-2A2.76,2.76,0,0,0,300.35,101.94ZM326.64,72a2.76,2.76,0,1,0-3.38-2A2.77,2.77,0,0,0,326.64,72Zm-5.34,1.43a2.76,2.76,0,1,0,3.38,2A2.76,2.76,0,0,0,321.3,73.46Zm-1,17.43a2.76,2.76,0,1,0,3.38,2A2.77,2.77,0,0,0,320.26,90.89Zm.9,14.06a2.76,2.76,0,1,0,2-3.39A2.77,2.77,0,0,0,321.16,105Zm7.15,26.67a2.76,2.76,0,1,0-1.95,3.38A2.76,2.76,0,0,0,328.31,131.62ZM321,136.43a2.77,2.77,0,0,0-1.91,1.83l4.67,2.69a2.71,2.71,0,0,0,.62-2.56A2.76,2.76,0,0,0,321,136.43Zm-6.76-3.9a2.74,2.74,0,0,0-1.91,1.82l4.66,2.7a2.75,2.75,0,0,0-2.75-4.52Zm20.81,3a2.76,2.76,0,1,0-1.95,3.38A2.76,2.76,0,0,0,335.07,135.53Zm-7.28,4.81a2.73,2.73,0,0,0-1.91,1.83l4.66,2.69a2.75,2.75,0,0,0-2.75-4.52ZM301.25,116a2.76,2.76,0,1,0-1.95,3.38A2.76,2.76,0,0,0,301.25,116Zm-.52,8.71a2.79,2.79,0,0,0-1.91,1.83l4.66,2.7a2.76,2.76,0,0,0-2.75-4.53Zm14-.9a2.76,2.76,0,1,0-1.95,3.38A2.76,2.76,0,0,0,314.78,123.81Zm-6.76-3.9a2.76,2.76,0,1,0-1.95,3.38A2.77,2.77,0,0,0,308,119.91Zm-.52,8.71a2.74,2.74,0,0,0-1.92,1.83l4.67,2.69a2.75,2.75,0,0,0-2.75-4.52Zm14.05-.9a2.76,2.76,0,1,0-1.95,3.38A2.77,2.77,0,0,0,321.55,127.72Zm13.28-46.45a2.76,2.76,0,0,0,.94,5.41V81.19A2.77,2.77,0,0,0,334.83,81.27Zm-.28,63a2.77,2.77,0,0,0-1.91,1.83l3.13,1.81V144.2A2.81,2.81,0,0,0,334.55,144.24Zm1.19-48.92,0,.09V93.79A2.74,2.74,0,0,0,335.74,95.32Zm-1.53-42.2-3.07,1.77a2.76,2.76,0,0,0,3.31,3.61,2.69,2.69,0,0,0,1.32-.81V54A2.75,2.75,0,0,0,334.21,53.12Zm-.28,14.1a2.72,2.72,0,0,0,1.84,1.91V63.88A2.75,2.75,0,0,0,333.93,67.22Zm-.14,31.48a2.76,2.76,0,1,0,1.43,5.34,3.32,3.32,0,0,0,.55-.22V98.93A2.75,2.75,0,0,0,333.79,98.7ZM300,72.88l-1.75,1a1.81,1.81,0,0,0,.31,0A2.78,2.78,0,0,0,300,72.88Zm32.76,43.26a2.76,2.76,0,1,0,1.43,5.33,2.69,2.69,0,0,0,1.6-1.18v-3A2.75,2.75,0,0,0,332.74,116.14Zm1.95-3.38a2.76,2.76,0,0,0,1.08,1.53v-4.5A2.76,2.76,0,0,0,334.69,112.76Zm-1,17.43a2.74,2.74,0,0,0,2.12,2v-5.39l-.17,0A2.76,2.76,0,0,0,333.65,130.19Zm-73.51-28.91a2.77,2.77,0,0,0-1.91,1.83l4.67,2.69a2.71,2.71,0,0,0,.62-2.56A2.76,2.76,0,0,0,260.14,101.28Zm19.92-11a2.76,2.76,0,0,0-.74-5.42L277,86.18a2.72,2.72,0,0,0-.28,2.1A2.77,2.77,0,0,0,280.06,90.23Zm-10.67,2.86a2.77,2.77,0,0,0,1.95-3.38c0-.09-.06-.16-.09-.24l-4.7,2.71A2.77,2.77,0,0,0,269.39,93.09ZM256.13,98.2l-3.2,1.85,3.2,1.85a2.76,2.76,0,0,0,.63-2.57A2.67,2.67,0,0,0,256.13,98.2Zm20-1.21A2.76,2.76,0,1,0,272.77,95,2.76,2.76,0,0,0,276.15,97Zm18.48-16.38a2.77,2.77,0,0,0,1.95-3.39,2.71,2.71,0,0,0-1.26-1.65L291.16,78a2.23,2.23,0,0,0,.09.68A2.76,2.76,0,0,0,294.63,80.61Zm-.66,40.2a2.74,2.74,0,0,0-1.92,1.83l4.67,2.69a2.75,2.75,0,0,0-2.75-4.52Zm-3.25-33.44a2.76,2.76,0,1,0-3.38-2A2.76,2.76,0,0,0,290.72,87.37ZM284,83.46a2.75,2.75,0,0,0,2-2.5l-4,2.3A2.72,2.72,0,0,0,284,83.46Zm17.43,1.05a2.76,2.76,0,1,0-3.38-2A2.76,2.76,0,0,0,301.39,84.51Zm-13.67,23.68a2.76,2.76,0,1,0-2,3.38A2.76,2.76,0,0,0,287.72,108.19Zm-.52,8.71a2.79,2.79,0,0,0-1.91,1.83l4.66,2.7a2.76,2.76,0,0,0-2.75-4.53Zm7.29-4.81a2.76,2.76,0,1,0-1.95,3.38A2.77,2.77,0,0,0,294.49,112.09ZM267.43,96.47a2.76,2.76,0,1,0-1.95,3.38A2.76,2.76,0,0,0,267.43,96.47Zm13,16.53a2.73,2.73,0,0,0-1.91,1.83l4.66,2.69a2.75,2.75,0,0,0-2.75-4.52Zm-6.25-12.62a2.76,2.76,0,1,0-1.95,3.38A2.75,2.75,0,0,0,274.19,100.38Zm-7.28,4.81A2.73,2.73,0,0,0,265,107l4.66,2.69a2.75,2.75,0,0,0-2.75-4.52Zm6.76,3.9a2.77,2.77,0,0,0-1.91,1.83l4.67,2.7a2.77,2.77,0,0,0-2.76-4.53Zm7.29-4.81a2.76,2.76,0,1,0-1.95,3.38A2.76,2.76,0,0,0,281,104.28Z"/></svg>