<?xml version="1.0" encoding="utf-8"?>
<!-- Generator: Adobe Illustrator 16.0.3, SVG Export Plug-In . SVG Version: 6.00 Build 0)  -->
<!DOCTYPE svg PUBLIC "-//W3C//DTD SVG 1.1//EN" "http://www.w3.org/Graphics/SVG/1.1/DTD/svg11.dtd">
<svg version="1.1" id="Layer_1" xmlns="http://www.w3.org/2000/svg" xmlns:xlink="http://www.w3.org/1999/xlink" x="0px" y="0px"
	 width="221px" height="147px" viewBox="0 0 221 147" style="enable-background:new 0 0 221 147;" xml:space="preserve">
<style type="text/css">
<![CDATA[
	.st0{fill:#8CC14B;}
	.st1{fill:#FFFFFF;}
]]>
</style>
<g>
	<polygon class="st1" points="149.2,28.8 116.9,47.5 110.5,51.1 71.8,28.8 33,51.1 33,95.9 71.8,118.2 104.1,99.5 110.5,95.9 
		149.2,118.2 188,95.9 188,51.1 	"/>
	<path d="M149.2,120.3c-0.4,0-0.7-0.1-1-0.3l-37.7-21.8L72.8,120c-0.6,0.4-1.4,0.4-2,0L32,97.6c-0.6-0.4-1-1-1-1.8V51.1
		c0-0.7,0.4-1.4,1-1.8L70.7,27c0.6-0.4,1.4-0.4,2,0l37.7,21.8L148.2,27c0.6-0.4,1.4-0.4,2,0L189,49.4c0.6,0.4,1,1,1,1.8v44.7
		c0,0.7-0.4,1.4-1,1.8L150.3,120C149.9,120.2,149.6,120.3,149.2,120.3 M110.5,93.8c0.4,0,0.7,0.1,1,0.3l37.7,21.8l36.7-21.2V52.3
		l-36.7-21.2l-37.7,21.8c-0.6,0.4-1.4,0.4-2,0L71.8,31.1L35.1,52.3v42.4l36.7,21.2l37.7-21.8C109.8,93.9,110.1,93.8,110.5,93.8"/>
	<polygon class="st0" points="188,51.1 188,51.1 188,95.9 149.2,73.5 	"/>
	<path d="M188,97.9c-0.4,0-0.7-0.1-1-0.3l-38.7-22.4c-0.6-0.4-1-1-1-1.8c0-0.7,0.4-1.4,1-1.8l38.7-22.4c0.6-0.4,1.4-0.4,2,0
		c0.6,0.4,1,1,1,1.8v44.7c0,0.7-0.4,1.4-1,1.8C188.7,97.8,188.3,97.9,188,97.9 M153.3,73.5l32.6,18.8V54.7L153.3,73.5z"/>
	<polygon class="st0" points="71.8,73.5 33,95.9 33,51.1 	"/>
	<path d="M33,97.9c-0.4,0-0.7-0.1-1-0.3c-0.6-0.4-1-1-1-1.8V51.1c0-0.7,0.4-1.4,1-1.8c0.6-0.4,1.4-0.4,2,0l38.7,22.4
		c0.6,0.4,1,1,1,1.8c0,0.7-0.4,1.4-1,1.8L34.1,97.6C33.7,97.8,33.4,97.9,33,97.9 M35.1,54.7v37.6l32.6-18.8L35.1,54.7z"/>
	<polygon class="st0" points="149.2,28.8 116.9,47.5 110.5,51.1 71.8,73.5 33,95.9 71.8,118.2 104.1,99.5 110.5,95.9 149.2,73.5 
		188,51.1 	"/>
	<path d="M71.8,120.3c-0.4,0-0.7-0.1-1-0.3L32,97.6c-0.6-0.4-1-1-1-1.8c0-0.7,0.4-1.4,1-1.8L148.2,27c0.6-0.4,1.4-0.4,2.1,0
		L189,49.4c0.6,0.4,1,1,1,1.8c0,0.7-0.4,1.4-1,1.8L72.8,120C72.5,120.2,72.1,120.3,71.8,120.3 M37.1,95.9l34.6,20l112.1-64.7
		l-34.6-20L37.1,95.9z"/>
	<path d="M175.9,81.2c0.7-0.2,1.1-0.9,0.9-1.6c-0.2-0.7-0.9-1.1-1.6-0.9c-0.7,0.2-1.1,0.9-0.9,1.6S175.2,81.4,175.9,81.2 M179.1,83
		c0.7-0.2,1.1-0.9,0.9-1.6c-0.2-0.7-0.9-1.1-1.6-0.9c-0.7,0.2-1.1,0.9-0.9,1.6S178.4,83.2,179.1,83 M173.7,63.1
		c0.7-0.2,1.1-0.9,0.9-1.6c-0.2-0.7-0.9-1.1-1.6-0.9c-0.7,0.2-1.1,0.9-0.9,1.6C172.3,62.8,173,63.3,173.7,63.1 M180.9,79.9
		c0.7-0.2,1.1-0.9,0.9-1.6c-0.2-0.7-0.9-1.1-1.6-0.9c-0.7,0.2-1.1,0.9-0.9,1.6C179.5,79.6,180.2,80,180.9,79.9 M174.4,65.6
		c-0.7,0.2-1.1,0.9-0.9,1.6c0.2,0.7,0.9,1.1,1.6,0.9c0.7-0.2,1.1-0.9,0.9-1.6C175.8,65.8,175.1,65.4,174.4,65.6 M172.6,68.7
		c-0.7,0.2-1.1,0.9-0.9,1.6c0.2,0.7,0.9,1.1,1.6,0.9c0.7-0.2,1.1-0.9,0.9-1.6C174,69,173.2,68.5,172.6,68.7 M182.2,84.9
		c0.7-0.2,1.1-0.9,0.9-1.6c-0.2-0.7-0.9-1.1-1.6-0.9c-0.7,0.2-1.1,0.9-0.9,1.6C180.8,84.6,181.5,85,182.2,84.9 M174.6,76.2
		c0.7-0.2,1.1-0.9,0.9-1.6c-0.2-0.7-0.9-1.1-1.6-0.9c-0.7,0.2-1.1,0.9-0.9,1.6C173.2,76,173.9,76.4,174.6,76.2 M172.7,79.4
		c0.7-0.2,1.1-0.9,0.9-1.6c-0.2-0.7-0.9-1.1-1.6-0.9c-0.7,0.2-1.1,0.9-0.9,1.6C171.3,79.2,172,79.6,172.7,79.4 M177.7,78
		c0.7-0.2,1.1-0.9,0.9-1.6c-0.2-0.7-0.9-1.1-1.6-0.9c-0.7,0.2-1.1,0.9-0.9,1.6C176.3,77.8,177,78.2,177.7,78 M178.7,61.7
		c0.7-0.2,1.1-0.9,0.9-1.6c-0.2-0.7-0.9-1.1-1.6-0.9c-0.7,0.2-1.1,0.9-0.9,1.6C177.3,61.5,178,61.9,178.7,61.7 M182.4,55.4
		c0.7-0.2,1.1-0.9,0.9-1.6l-2.1,1.2C181.4,55.4,181.9,55.5,182.4,55.4 M180.5,58.6c0.7-0.2,1.1-0.9,0.9-1.6
		c-0.2-0.7-0.9-1.1-1.6-0.9c-0.7,0.2-1.1,0.9-0.9,1.6C179.1,58.4,179.8,58.8,180.5,58.6 M175.5,59.9c0.7-0.2,1.1-0.9,0.9-1.6
		c0-0.2-0.1-0.3-0.2-0.4l-2.2,1.3C174.3,59.8,174.9,60.1,175.5,59.9 M186.4,70.4c0.7-0.2,1.1-0.9,0.9-1.6c-0.2-0.7-0.9-1.1-1.6-0.9
		c-0.7,0.2-1.1,0.9-0.9,1.6C185,70.2,185.7,70.6,186.4,70.4 M183.9,71c-0.7,0.2-1.1,0.9-0.9,1.6s0.9,1.1,1.6,0.9
		c0.7-0.2,1.1-0.9,0.9-1.6C185.3,71.3,184.6,70.9,183.9,71 M185.9,78.5c0.7-0.2,1.1-0.9,0.9-1.6c-0.2-0.7-0.9-1.1-1.6-0.9
		c-0.7,0.2-1.1,0.9-0.9,1.6C184.5,78.3,185.2,78.7,185.9,78.5 M184.4,62.9c-0.7,0.2-1.1,0.9-0.9,1.6c0.2,0.7,0.9,1.1,1.6,0.9
		c0.7-0.2,1.1-0.9,0.9-1.6C185.8,63.1,185,62.7,184.4,62.9 M186.9,62.2c0.7-0.2,1.1-0.9,0.9-1.6c-0.2-0.7-0.9-1.1-1.6-0.9
		c-0.7,0.2-1.1,0.9-0.9,1.6C185.5,62,186.2,62.4,186.9,62.2 M176.2,62.4c-0.7,0.2-1.1,0.9-0.9,1.6c0.2,0.7,0.9,1.1,1.6,0.9
		c0.7-0.2,1.1-0.9,0.9-1.6C177.6,62.6,176.9,62.2,176.2,62.4 M166.4,75.7c0.7-0.2,1.1-0.9,0.9-1.6c-0.2-0.7-0.9-1.1-1.6-0.9
		c-0.7,0.2-1.1,0.9-0.9,1.6C165,75.5,165.7,75.9,166.4,75.7 M169.6,77.5c0.7-0.2,1.1-0.9,0.9-1.6c-0.2-0.7-0.9-1.1-1.6-0.9
		s-1.1,0.9-0.9,1.6C168.2,77.3,168.9,77.7,169.6,77.5 M170.1,69.4c0.7-0.2,1.1-0.9,0.9-1.6c-0.2-0.7-0.9-1.1-1.6-0.9
		c-0.7,0.2-1.1,0.9-0.9,1.6C168.7,69.2,169.4,69.6,170.1,69.4 M162.6,71.4c-0.7,0.2-1.1,0.9-0.9,1.6c0.2,0.7,0.9,1.1,1.6,0.9
		c0.7-0.2,1.1-0.9,0.9-1.6C164,71.6,163.3,71.2,162.6,71.4 M168.2,72.6c0.7-0.2,1.1-0.9,0.9-1.6c-0.2-0.7-0.9-1.1-1.6-0.9
		c-0.7,0.2-1.1,0.9-0.9,1.6C166.8,72.3,167.5,72.7,168.2,72.6 M185.5,57.2c0.7-0.2,1.1-0.9,0.9-1.6c-0.2-0.7-0.9-1.1-1.6-0.9
		c-0.7,0.2-1.1,0.9-0.9,1.6C184.1,57,184.8,57.4,185.5,57.2 M165.1,70.7c0.7-0.2,1.1-0.9,0.9-1.6c-0.2-0.7-0.9-1.1-1.6-0.9
		c-0.7,0.2-1.1,0.9-0.9,1.6C163.7,70.5,164.4,70.9,165.1,70.7 M183.4,79.2c-0.7,0.2-1.1,0.9-0.9,1.6c0.2,0.7,0.9,1.1,1.6,0.9
		s1.1-0.9,0.9-1.6C184.8,79.4,184.1,79,183.4,79.2 M175.7,70.6c-0.7,0.2-1.1,0.9-0.9,1.6c0.2,0.7,0.9,1.1,1.6,0.9
		c0.7-0.2,1.1-0.9,0.9-1.6C177.1,70.8,176.4,70.4,175.7,70.6 M183.8,85.8c0.2,0.7,0.9,1.1,1.6,0.9c0.7-0.2,1.1-0.9,0.9-1.6
		c-0.2-0.7-0.9-1.1-1.6-0.9C184,84.4,183.6,85.1,183.8,85.8 M183.2,68.6c0.7-0.2,1.1-0.9,0.9-1.6c-0.2-0.7-0.9-1.1-1.6-0.9
		c-0.7,0.2-1.1,0.9-0.9,1.6C181.8,68.3,182.5,68.7,183.2,68.6 M179.4,64.2c-0.7,0.2-1.1,0.9-0.9,1.6c0.2,0.7,0.9,1.1,1.6,0.9
		c0.7-0.2,1.1-0.9,0.9-1.6C180.8,64.5,180.1,64,179.4,64.2 M178.9,72.4c-0.7,0.2-1.1,0.9-0.9,1.6c0.2,0.7,0.9,1.1,1.6,0.9
		c0.7-0.2,1.1-0.9,0.9-1.6C180.3,72.6,179.6,72.2,178.9,72.4 M177.5,67.4c-0.7,0.2-1.1,0.9-0.9,1.6c0.2,0.7,0.9,1.1,1.6,0.9
		c0.7-0.2,1.1-0.9,0.9-1.6C178.9,67.6,178.2,67.2,177.5,67.4 M171.4,74.4c0.7-0.2,1.1-0.9,0.9-1.6c-0.2-0.7-0.9-1.1-1.6-0.9
		c-0.7,0.2-1.1,0.9-0.9,1.6C170,74.2,170.7,74.6,171.4,74.4 M183.7,60.4c0.7-0.2,1.1-0.9,0.9-1.6c-0.2-0.7-0.9-1.1-1.6-0.9
		c-0.7,0.2-1.1,0.9-0.9,1.6C182.3,60.2,183,60.6,183.7,60.4 M181.2,61.1c-0.7,0.2-1.1,0.9-0.9,1.6c0.2,0.7,0.9,1.1,1.6,0.9
		c0.7-0.2,1.1-0.9,0.9-1.6C182.6,61.3,181.9,60.9,181.2,61.1 M180.7,69.2c-0.7,0.2-1.1,0.9-0.9,1.6c0.2,0.7,0.9,1.1,1.6,0.9
		c0.7-0.2,1.1-0.9,0.9-1.6C182.1,69.4,181.4,69,180.7,69.2 M181.1,75.8c0.2,0.7,0.9,1.1,1.6,0.9c0.7-0.2,1.1-0.9,0.9-1.6
		s-0.9-1.1-1.6-0.9C181.4,74.4,180.9,75.1,181.1,75.8 M184.5,88.3c-0.2-0.7-0.9-1.1-1.6-0.9s-1.1,0.9-0.9,1.6
		c0.2,0.7,0.9,1.1,1.6,0.9C184.2,89.7,184.7,88.9,184.5,88.3 M181.1,90.5c-0.4,0.1-0.8,0.5-0.9,0.9l2.2,1.3c0.3-0.3,0.4-0.8,0.3-1.2
		C182.5,90.7,181.8,90.3,181.1,90.5 M177.9,88.7c-0.4,0.1-0.8,0.5-0.9,0.9l2.2,1.3c0.3-0.3,0.4-0.8,0.3-1.2
		C179.3,88.9,178.6,88.5,177.9,88.7 M187.6,90.1c-0.2-0.7-0.9-1.1-1.6-0.9c-0.7,0.2-1.1,0.9-0.9,1.6c0.2,0.7,0.9,1.1,1.6,0.9
		C187.4,91.5,187.8,90.8,187.6,90.1 M184.2,92.3c-0.4,0.1-0.8,0.5-0.9,0.9l2.2,1.3c0.3-0.3,0.4-0.8,0.3-1.2
		C185.6,92.6,184.9,92.2,184.2,92.3 M171.8,81c-0.2-0.7-0.9-1.1-1.6-0.9c-0.7,0.2-1.1,0.9-0.9,1.6c0.2,0.7,0.9,1.1,1.6,0.9
		C171.6,82.4,172,81.6,171.8,81 M171.6,85c-0.4,0.1-0.8,0.5-0.9,0.9l2.2,1.3c0.3-0.3,0.4-0.8,0.3-1.2C173,85.3,172.3,84.8,171.6,85
		 M178.1,84.6c-0.2-0.7-0.9-1.1-1.6-0.9c-0.7,0.2-1.1,0.9-0.9,1.6c0.2,0.7,0.9,1.1,1.6,0.9C177.9,86,178.3,85.3,178.1,84.6
		 M175,82.8c-0.2-0.7-0.9-1.1-1.6-0.9c-0.7,0.2-1.1,0.9-0.9,1.6c0.2,0.7,0.9,1.1,1.6,0.9C174.8,84.2,175.2,83.5,175,82.8
		 M174.7,86.9c-0.4,0.1-0.8,0.5-0.9,0.9L176,89c0.3-0.3,0.4-0.8,0.3-1.2C176.1,87.1,175.4,86.7,174.7,86.9 M181.3,86.4
		c-0.2-0.7-0.9-1.1-1.6-0.9s-1.1,0.9-0.9,1.6c0.2,0.7,0.9,1.1,1.6,0.9S181.5,87.1,181.3,86.4 M187.5,64.7c-0.7,0.2-1.1,0.9-0.9,1.6
		c0.2,0.6,0.7,1,1.4,1v-2.6C187.8,64.7,187.7,64.7,187.5,64.7 M187.4,94.2c-0.4,0.1-0.8,0.5-0.9,0.9l1.5,0.8v-1.7
		C187.8,94.1,187.6,94.1,187.4,94.2 M187.9,71.3C187.9,71.3,188,71.3,187.9,71.3l0-0.7C187.9,70.8,187.9,71,187.9,71.3 M187.2,51.6
		l-1.4,0.8c-0.1,0.2-0.1,0.5,0,0.8c0.2,0.7,0.9,1.1,1.6,0.9c0.2-0.1,0.5-0.2,0.6-0.4V52C187.8,51.8,187.5,51.6,187.2,51.6
		 M187.1,58.2c0.1,0.4,0.5,0.8,0.9,0.9v-2.5C187.3,56.8,186.9,57.5,187.1,58.2 M187,72.9c-0.7,0.2-1.1,0.9-0.9,1.6
		c0.2,0.7,0.9,1.1,1.6,0.9c0.1,0,0.2-0.1,0.3-0.1V73C187.7,72.8,187.4,72.8,187,72.9 M171.2,60.8l-0.8,0.5c0,0,0.1,0,0.1,0
		C170.8,61.2,171.1,61,171.2,60.8 M186.5,81c-0.7,0.2-1.1,0.9-0.9,1.6c0.2,0.7,0.9,1.1,1.6,0.9c0.3-0.1,0.6-0.3,0.7-0.6v-1.4
		C187.7,81.1,187.1,80.9,186.5,81 M187.5,79.4c0.1,0.3,0.3,0.5,0.5,0.7v-2.1C187.5,78.4,187.3,78.9,187.5,79.4 M187,87.6
		c0.1,0.5,0.5,0.8,1,0.9V86c0,0-0.1,0-0.1,0C187.2,86.2,186.8,86.9,187,87.6 M152.6,74.1c-0.4,0.1-0.8,0.5-0.9,0.9l2.2,1.3
		c0.3-0.3,0.4-0.8,0.3-1.2C154,74.3,153.3,73.9,152.6,74.1 M161.9,68.9c0.7-0.2,1.1-0.9,0.9-1.6c-0.2-0.6-0.7-1-1.3-1l-1.1,0.6
		c-0.2,0.3-0.2,0.6-0.1,1C160.5,68.7,161.2,69.1,161.9,68.9 M156.9,70.2c0.7-0.2,1.1-0.9,0.9-1.6c0,0,0-0.1,0-0.1l-2.2,1.3
		C155.9,70.2,156.4,70.4,156.9,70.2 M150.7,72.6l-1.5,0.9l1.5,0.9c0.3-0.3,0.4-0.8,0.3-1.2C151,73,150.9,72.8,150.7,72.6
		 M160.1,72.1c0.7-0.2,1.1-0.9,0.9-1.6c-0.2-0.7-0.9-1.1-1.6-0.9c-0.7,0.2-1.1,0.9-0.9,1.6C158.7,71.8,159.4,72.3,160.1,72.1
		 M168.7,64.4c0.7-0.2,1.1-0.9,0.9-1.6c-0.1-0.3-0.3-0.6-0.6-0.8l-1.9,1.1c0,0.1,0,0.2,0,0.3C167.3,64.2,168,64.6,168.7,64.4
		 M168.4,83.2c-0.4,0.1-0.8,0.5-0.9,0.9l2.2,1.3c0.3-0.3,0.4-0.8,0.3-1.2C169.8,83.4,169.1,83,168.4,83.2 M166.9,67.6
		c0.7-0.2,1.1-0.9,0.9-1.6c-0.2-0.7-0.9-1.1-1.6-0.9c-0.7,0.2-1.1,0.9-0.9,1.6C165.5,67.3,166.2,67.8,166.9,67.6 M163.7,65.7
		c0.6-0.1,0.9-0.6,0.9-1.2l-1.9,1.1C163.1,65.8,163.4,65.8,163.7,65.7 M171.9,66.2c0.7-0.2,1.1-0.9,0.9-1.6
		c-0.2-0.7-0.9-1.1-1.6-0.9c-0.7,0.2-1.1,0.9-0.9,1.6C170.5,66,171.2,66.4,171.9,66.2 M165.5,77.3c-0.2-0.7-0.9-1.1-1.6-0.9
		c-0.7,0.2-1.1,0.9-0.9,1.6s0.9,1.1,1.6,0.9C165.3,78.7,165.7,78,165.5,77.3 M165.3,81.4c-0.4,0.1-0.8,0.5-0.9,0.9l2.2,1.3
		c0.3-0.3,0.4-0.8,0.3-1.2C166.7,81.6,165.9,81.2,165.3,81.4 M168.7,79.1c-0.2-0.7-0.9-1.1-1.6-0.9c-0.7,0.2-1.1,0.9-0.9,1.6
		c0.2,0.7,0.9,1.1,1.6,0.9C168.4,80.5,168.8,79.8,168.7,79.1 M156,71.8c-0.2-0.7-0.9-1.1-1.6-0.9c-0.7,0.2-1.1,0.9-0.9,1.6
		c0.2,0.7,0.9,1.1,1.6,0.9C155.8,73.2,156.2,72.5,156,71.8 M162.1,79.6c-0.4,0.1-0.8,0.5-0.9,0.9l2.2,1.3c0.3-0.3,0.4-0.8,0.3-1.2
		C163.5,79.8,162.8,79.4,162.1,79.6 M159.2,73.7c-0.2-0.7-0.9-1.1-1.6-0.9c-0.7,0.2-1.1,0.9-0.9,1.6c0.2,0.7,0.9,1.1,1.6,0.9
		C159,75.1,159.4,74.3,159.2,73.7 M155.8,75.9c-0.4,0.1-0.8,0.5-0.9,0.9l2.2,1.3c0.3-0.3,0.4-0.8,0.3-1.2
		C157.2,76.1,156.5,75.7,155.8,75.9 M158.9,77.7c-0.4,0.1-0.8,0.5-0.9,0.9l2.2,1.3c0.3-0.3,0.4-0.8,0.3-1.2
		C160.3,78,159.6,77.5,158.9,77.7 M162.3,75.5c-0.2-0.7-0.9-1.1-1.6-0.9c-0.7,0.2-1.1,0.9-0.9,1.6c0.2,0.7,0.9,1.1,1.6,0.9
		C162.1,76.9,162.5,76.2,162.3,75.5"/>
</g>
</svg>
