<?xml version="1.0" encoding="utf-8"?>
<!-- Generator: Adobe Illustrator 16.0.3, SVG Export Plug-In . SVG Version: 6.00 Build 0)  -->
<!DOCTYPE svg PUBLIC "-//W3C//DTD SVG 1.1//EN" "http://www.w3.org/Graphics/SVG/1.1/DTD/svg11.dtd">
<svg version="1.1" xmlns="http://www.w3.org/2000/svg" xmlns:xlink="http://www.w3.org/1999/xlink" x="0px" y="0px" width="623.6px"
	 height="255.1px" viewBox="0 0 623.6 255.1" style="enable-background:new 0 0 623.6 255.1;" xml:space="preserve">
<style type="text/css">
<![CDATA[
	.st0{fill:#FF5A00;}
	.st1{fill:#FFFFFF;}
]]>
</style>
<g id="BG">
	<rect class="st1" width="623.6" height="255.1"/>
</g>
<g id="Logo">
	<g>
		<path class="st0" d="M555.6,180.3c16.8-0.1,32.8-7.3,42.9-21c6.9-9.5,10.2-21.4,10.2-33.1c0-11.6-3.3-23.6-10.2-33.1
			c-10-13.7-26.1-20.9-42.9-21c-16.8,0.1-32.8,7.3-42.9,21c-6.9,9.5-10.2,21.4-10.2,33.1c0,11.6,3.3,23.6,10.2,33.1
			C522.8,173,538.8,180.3,555.6,180.3 M529.7,113.8c3.9-11.6,13.1-20.9,25.9-21c12.8,0.1,22,9.4,25.9,21c1.2,3.7,2.1,8.2,2.1,12.4
			c0,4.2-0.8,8.7-2.1,12.4c-3.9,11.6-13.1,20.9-25.9,21c-12.8-0.1-22-9.4-25.9-21c-1.2-3.7-2.1-8.2-2.1-12.4
			C527.7,122,528.5,117.5,529.7,113.8"/>
		<path class="st0" d="M170.3,180.7h17.8c1.7,0,3.1-1.4,3.1-3.1V31.2c0-1.7-1.4-3.1-3.1-3.1h-17.8c-1.7,0-3.1,1.4-3.1,3.1v146.4
			C167.2,179.3,168.6,180.7,170.3,180.7"/>
		<path class="st0" d="M128.4,180.7h17.8c1.7,0,3.1-1.4,3.1-3.1V31.2c0-1.7-1.4-3.1-3.1-3.1h-17.8c-1.7,0-3.1,1.4-3.1,3.1v146.4
			C125.4,179.3,126.7,180.7,128.4,180.7"/>
		<path class="st0" d="M440.9,180.7h17.8c1.7,0,3.1-1.4,3.1-3.1l0-59.8c0-18.6,12.4-27.6,32.5-23.4c2.4,0.5,4.2-0.8,4.2-3.5V78.4
			c0-3.2-0.3-4.4-2.7-5.1h0c-3.3-0.9-10.4-1.2-12.4-1.2c-13,0-24.6,5.2-32.6,13.1c-5.9,5.9-13.1,15-13.1,31v61.3
			C437.8,179.3,439.2,180.7,440.9,180.7"/>
		<path class="st0" d="M369.2,180.3c11,0,21.7-3.2,30.5-9.2v13.1c0,17.8-15.5,21-25.5,21.6c-6.7,0.4-16.2-0.5-20.4-1.1
			c-2.7-0.4-4.6,0.1-4.6,2.9v15.8c0,1.2,0.9,2.4,2.8,2.6c23.1,2,38.6,1.6,50.3-5.1c8.3-4.7,14-12.5,17-21.6
			c2.2-6.6,2.9-14.6,2.9-21.6v-51.4c0-11.8-3.2-23.4-10.2-33.1c-10-13.7-26.1-21-42.9-21c-16.8,0.1-32.8,7.3-42.9,21
			c-13.7,18.8-13.7,47.4,0,66.2C336.4,173,352.4,180.3,369.2,180.3 M343.4,113.8c3.9-11.6,13.1-21,25.9-21
			c28.6,0,29.6,29.2,29.6,33.4c0,4.2-1,33.4-29.6,33.4c-12.8,0-22-9.4-25.9-21c-1.3-3.7-2.1-8.2-2.1-12.4
			C341.3,122,342.1,117.5,343.4,113.8"/>
		<path class="st0" d="M258,180.3c17.1,0.6,28.5-2.3,37.1-7.2c1.7-1,2.1-2.1,2.1-5.2V154c0-2.8-1.7-4.1-4.3-2.4
			c-9.2,5.9-20.3,9.5-34.5,8.4c-14.2-1.1-26-11.1-27.1-25.2h70.3c1.6,0,2.8-1.2,2.9-2.9c1.2-19.2-4.4-59.7-47.6-59.7
			c-31.7,0-45.4,21.3-50,39.2c-1.2,4.8-1.8,9.9-1.8,14.8c0,11.6,3.3,23.6,10.2,33.1C225.2,173,241.2,179.7,258,180.3 M256.7,92.8
			c10.4,0,22.5,5.9,22.5,22.8h-47.9C231.4,107.8,238,92.8,256.7,92.8"/>
		<path class="st0" d="M26,172.8c6.8,5.4,16.1,7.9,27.7,7.9l8.4,0l44,0c1.7,0,3.1-1.4,3.1-3.1l0-30.3l0-31.8c0-14.1-3.1-25-9.9-32.3
			c-7.1-7.5-20.5-11.1-33.1-11.1c-12.6,0-25.5,3.3-36.3,9.6c-0.7,0.4-1.1,1.2-1.1,2v0.1l1,15.6c0.2,2.1,2.6,2.8,4.5,1.6
			c15.5-9.7,34.2-11.4,43.6-6.7c6.6,3.3,8.4,10.4,8.4,15v2.3h-26c-11.1,0-45.3,4-45.3,35.5v0.2v0.1v0.2
			C14.9,158.4,18.6,167.1,26,172.8 M61.6,130.6h24.6v16.7v14.1H62h-6.8c-4.1-0.3-7.7-1.3-11-3.9c-3.5-2.7-5.2-6-5.2-10.2
			c0,0,0-0.1,0-0.1C39.1,141.7,42.9,130.6,61.6,130.6"/>
	</g>
</g>
</svg>
