<svg xmlns="http://www.w3.org/2000/svg" viewBox="0 0 623.62 255.12"><defs><style>.cls-1{fill:#fff;}.cls-2{fill:#252f3e;}.cls-3{fill:#f90;}</style></defs><title>aws</title><g id="BG"><rect class="cls-1" width="623.62" height="255.12"/></g><g id="Logo"><path class="cls-2" d="M237.49,99.35a31.92,31.92,0,0,0,1.3,10.09,51.87,51.87,0,0,0,3.68,8.11,5.41,5.41,0,0,1,.82,2.59,4.37,4.37,0,0,1-2.19,3.34l-6.81,4.77a5.65,5.65,0,0,1-3,1,4.69,4.69,0,0,1-3.34-1.56,25.93,25.93,0,0,1-4.09-5.25,65.75,65.75,0,0,1-3.48-6.82,41.83,41.83,0,0,1-33.33,15.68,31,31,0,0,1-22.63-8.11,29.12,29.12,0,0,1-8.32-21.82,29.21,29.21,0,0,1,10-23.17,41.35,41.35,0,0,1,27.82-8.8,85.93,85.93,0,0,1,12,.89q6.27.89,13,2.45V64.45a24.89,24.89,0,0,0-5.38-18.13A25.93,25.93,0,0,0,195,41.07a52.3,52.3,0,0,0-12.2,1.5,87.34,87.34,0,0,0-12.2,3.88,30.85,30.85,0,0,1-4,1.5H164.9c-1.59,0-2.39-1.18-2.39-3.54V39a7.42,7.42,0,0,1,.82-4,8.13,8.13,0,0,1,3.2-2.39,74.27,74.27,0,0,1,14.25-5.11,69.61,69.61,0,0,1,17.65-2.18,40.91,40.91,0,0,1,29.65,9.2,37.4,37.4,0,0,1,9.41,27.88Zm-46,17.24a36.27,36.27,0,0,0,11.72-2.11,24.73,24.73,0,0,0,10.71-7.29,17.76,17.76,0,0,0,3.81-6.82,38.15,38.15,0,0,0,1.09-9.81V85.78a97,97,0,0,0-10.43-1.9,83.83,83.83,0,0,0-10.63-.69,26.26,26.26,0,0,0-16.84,4.57,15.94,15.94,0,0,0-5.38,12.61,16,16,0,0,0,4.16,12A16.29,16.29,0,0,0,191.48,116.59Zm91,12.27a6.79,6.79,0,0,1-4.36-1.09,8.8,8.8,0,0,1-2.39-4.43L249.22,35.68a20.48,20.48,0,0,1-1-4.56,2.46,2.46,0,0,1,2.06-2.8,2.3,2.3,0,0,1,.74,0H262.1a6.8,6.8,0,0,1,4.43,1.09,9.55,9.55,0,0,1,2.25,4.43l19,75,17.65-75a8,8,0,0,1,2.25-4.36,7.5,7.5,0,0,1,4.57-1.09h9.13A7.5,7.5,0,0,1,326,29.48a8,8,0,0,1,2.18,4.43l17.79,75.94,19.63-75.94a9.58,9.58,0,0,1,2.32-4.43,6.8,6.8,0,0,1,4.43-1.09h10.5a2.45,2.45,0,0,1,2.79,2.06,2.24,2.24,0,0,1,0,.73,8.82,8.82,0,0,1,0,1.78,24.7,24.7,0,0,1-.81,2.79l-27.27,87.66a8.8,8.8,0,0,1-2.39,4.43,6.77,6.77,0,0,1-4.36,1.09h-9.95a6.81,6.81,0,0,1-4.57-1.16,8.58,8.58,0,0,1-2.18-4.56l-17.65-73L299,123.14a8.66,8.66,0,0,1-2.19,4.57,6.82,6.82,0,0,1-4.56,1.15Zm145.6,3a77.05,77.05,0,0,1-17.45-2,51.15,51.15,0,0,1-13.09-4.57,6.83,6.83,0,0,1-4.16-6.34v-5.73c0-2.36.87-3.54,2.59-3.54a6.14,6.14,0,0,1,2.12.41l2.86,1.16a59.79,59.79,0,0,0,12.48,4,66.34,66.34,0,0,0,13.63,1.36,30.45,30.45,0,0,0,16.56-3.74,12,12,0,0,0,5.86-10.71,10.94,10.94,0,0,0-3.06-7.9,29.13,29.13,0,0,0-11.86-6l-16.43-5.18a35.13,35.13,0,0,1-17.66-11.45,26.87,26.87,0,0,1-5.65-16.43,25.2,25.2,0,0,1,3.06-12.61A30.34,30.34,0,0,1,406,33.23a35.86,35.86,0,0,1,11.58-5.86,50.14,50.14,0,0,1,14.25-2,60.82,60.82,0,0,1,7.63.48,70.89,70.89,0,0,1,7.37,1.29q3.46.82,6.47,1.77a29.25,29.25,0,0,1,4.77,2,10.86,10.86,0,0,1,3.34,2.8,6.43,6.43,0,0,1,1,3.74v5.39c0,2.36-.87,3.54-2.59,3.54A12,12,0,0,1,455.48,45a52.75,52.75,0,0,0-21.81-4.36,29.76,29.76,0,0,0-15.06,3.2A10.91,10.91,0,0,0,413.22,54a10.74,10.74,0,0,0,3.34,8A33.69,33.69,0,0,0,429,68.27l16.09,4.84A34.66,34.66,0,0,1,462.64,84,25.7,25.7,0,0,1,468,100.37a28.75,28.75,0,0,1-3,13.16,30.07,30.07,0,0,1-8.25,10,37.18,37.18,0,0,1-12.61,6.34A56.26,56.26,0,0,1,428.08,131.86Z"/><path class="cls-3" d="M449.48,187.69c-37.28,27.54-91.4,42.19-137.62,42.19A249.7,249.7,0,0,1,143,165.61c-3.48-3.14-.41-7.43,3.81-5.05a339.37,339.37,0,0,0,168.71,44.79A335.76,335.76,0,0,0,444.1,179C450.37,176.31,455.69,183.12,449.48,187.69Z"/><path class="cls-3" d="M465,170c-4.78-6.14-31.56-2.87-43.56-1.43-3.61.41-4.23-2.73-1-5,21.34-15,56.38-10.7,60.4-5.66s-1.09,40.15-21.06,56.92c-3.07,2.59-6,1.23-4.64-2.18C459.71,201.26,469.8,176.1,465,170Z"/><path class="cls-2" d="M237.49,99.35a31.92,31.92,0,0,0,1.3,10.09,51.87,51.87,0,0,0,3.68,8.11,5.41,5.41,0,0,1,.82,2.59,4.37,4.37,0,0,1-2.19,3.34l-6.81,4.77a5.65,5.65,0,0,1-3,1,4.69,4.69,0,0,1-3.34-1.56,25.93,25.93,0,0,1-4.09-5.25,65.75,65.75,0,0,1-3.48-6.82,41.83,41.83,0,0,1-33.33,15.68,31,31,0,0,1-22.63-8.11,29.12,29.12,0,0,1-8.32-21.82,29.21,29.21,0,0,1,10-23.17,41.35,41.35,0,0,1,27.82-8.8,85.93,85.93,0,0,1,12,.89q6.27.89,13,2.45V64.45a24.89,24.89,0,0,0-5.38-18.13A25.93,25.93,0,0,0,195,41.07a52.3,52.3,0,0,0-12.2,1.5,87.34,87.34,0,0,0-12.2,3.88,30.85,30.85,0,0,1-4,1.5H164.9c-1.59,0-2.39-1.18-2.39-3.54V39a7.42,7.42,0,0,1,.82-4,8.13,8.13,0,0,1,3.2-2.39,74.27,74.27,0,0,1,14.25-5.11,69.61,69.61,0,0,1,17.65-2.18,40.91,40.91,0,0,1,29.65,9.2,37.4,37.4,0,0,1,9.41,27.88Zm-46,17.24a36.27,36.27,0,0,0,11.72-2.11,24.73,24.73,0,0,0,10.71-7.29,17.76,17.76,0,0,0,3.81-6.82,38.15,38.15,0,0,0,1.09-9.81V85.78a97,97,0,0,0-10.43-1.9,83.83,83.83,0,0,0-10.63-.69,26.26,26.26,0,0,0-16.84,4.57,15.94,15.94,0,0,0-5.38,12.61,16,16,0,0,0,4.16,12A16.29,16.29,0,0,0,191.48,116.59Zm91,12.27a6.79,6.79,0,0,1-4.36-1.09,8.8,8.8,0,0,1-2.39-4.43L249.22,35.68a20.48,20.48,0,0,1-1-4.56,2.46,2.46,0,0,1,2.06-2.8,2.3,2.3,0,0,1,.74,0H262.1a6.8,6.8,0,0,1,4.43,1.09,9.55,9.55,0,0,1,2.25,4.43l19,75,17.65-75a8,8,0,0,1,2.25-4.36,7.5,7.5,0,0,1,4.57-1.09h9.13A7.5,7.5,0,0,1,326,29.48a8,8,0,0,1,2.18,4.43l17.79,75.94,19.63-75.94a9.58,9.58,0,0,1,2.32-4.43,6.8,6.8,0,0,1,4.43-1.09h10.5a2.45,2.45,0,0,1,2.79,2.06,2.24,2.24,0,0,1,0,.73,8.82,8.82,0,0,1,0,1.78,24.7,24.7,0,0,1-.81,2.79l-27.27,87.66a8.8,8.8,0,0,1-2.39,4.43,6.77,6.77,0,0,1-4.36,1.09h-9.95a6.81,6.81,0,0,1-4.57-1.16,8.58,8.58,0,0,1-2.18-4.56l-17.65-73L299,123.14a8.66,8.66,0,0,1-2.19,4.57,6.82,6.82,0,0,1-4.56,1.15Zm145.6,3a77.05,77.05,0,0,1-17.45-2,51.15,51.15,0,0,1-13.09-4.57,6.83,6.83,0,0,1-4.16-6.34v-5.73c0-2.36.87-3.54,2.59-3.54a6.14,6.14,0,0,1,2.12.41l2.86,1.16a59.79,59.79,0,0,0,12.48,4,66.34,66.34,0,0,0,13.63,1.36,30.45,30.45,0,0,0,16.56-3.74,12,12,0,0,0,5.86-10.71,10.94,10.94,0,0,0-3.06-7.9,29.13,29.13,0,0,0-11.86-6l-16.43-5.18a35.13,35.13,0,0,1-17.66-11.45,26.87,26.87,0,0,1-5.65-16.43,25.2,25.2,0,0,1,3.06-12.61A30.34,30.34,0,0,1,406,33.23a35.86,35.86,0,0,1,11.58-5.86,50.14,50.14,0,0,1,14.25-2,60.82,60.82,0,0,1,7.63.48,70.89,70.89,0,0,1,7.37,1.29q3.46.82,6.47,1.77a29.25,29.25,0,0,1,4.77,2,10.86,10.86,0,0,1,3.34,2.8,6.43,6.43,0,0,1,1,3.74v5.39c0,2.36-.87,3.54-2.59,3.54A12,12,0,0,1,455.48,45a52.75,52.75,0,0,0-21.81-4.36,29.76,29.76,0,0,0-15.06,3.2A10.91,10.91,0,0,0,413.22,54a10.74,10.74,0,0,0,3.34,8A33.69,33.69,0,0,0,429,68.27l16.09,4.84A34.66,34.66,0,0,1,462.64,84,25.7,25.7,0,0,1,468,100.37a28.75,28.75,0,0,1-3,13.16,30.07,30.07,0,0,1-8.25,10,37.18,37.18,0,0,1-12.61,6.34A56.26,56.26,0,0,1,428.08,131.86Z"/><path class="cls-3" d="M449.48,187.69c-37.28,27.54-91.4,42.19-137.62,42.19A249.7,249.7,0,0,1,143,165.61c-3.48-3.14-.41-7.43,3.81-5.05a339.37,339.37,0,0,0,168.71,44.79A335.76,335.76,0,0,0,444.1,179C450.37,176.31,455.69,183.12,449.48,187.69Z"/><path class="cls-3" d="M465,170c-4.78-6.14-31.56-2.87-43.56-1.43-3.61.41-4.23-2.73-1-5,21.34-15,56.38-10.7,60.4-5.66s-1.09,40.15-21.06,56.92c-3.07,2.59-6,1.23-4.64-2.18C459.71,201.26,469.8,176.1,465,170Z"/></g></svg>