<svg xmlns="http://www.w3.org/2000/svg" viewBox="0 0 623.62 255.12"><defs><style>.cls-1{fill:#fff;}.cls-2{fill:#c00;}</style></defs><title>balsamiq</title><g id="BG"><rect class="cls-1" width="623.62" height="255.12"/></g><g id="Logo"><path class="cls-2" d="M57.32,170.14c.29-4.59.57-11.39.57-17.37V71.47H70.35v42.25h.29c4.44-7.5,12.46-12.37,23.63-12.37,17.19,0,29.36,13.9,29.22,34.32,0,24-15.61,36-31.08,36-10,0-18-3.75-23.2-12.65h-.43l-.57,11.12Zm13-27a22.24,22.24,0,0,0,.57,4.45,19.35,19.35,0,0,0,18.9,14.31c13.18,0,21.05-10.42,21.05-25.85,0-13.48-7.16-25-20.62-25a20,20,0,0,0-19.19,15,23.46,23.46,0,0,0-.72,5Z"/><path class="cls-2" d="M175.27,170.14l-1-8.48h-.43c-3.87,5.28-11.31,10-21.2,10-14,0-21.19-9.59-21.19-19.32,0-16.26,14.89-25.15,41.67-25v-1.39c0-5.56-1.57-15.56-15.75-15.56a35.32,35.32,0,0,0-18,5l-2.87-8.06c5.73-3.61,14-6,22.77-6,21.2,0,26.35,14,26.35,27.51V154a92,92,0,0,0,1.15,16.12Zm-1.86-34.32c-13.75-.28-29.36,2.08-29.36,15.15,0,7.92,5.44,11.67,11.89,11.67,9,0,14.75-5.56,16.76-11.26a12.43,12.43,0,0,0,.72-3.89Z"/><path class="cls-2" d="M202.29,71.47h12.6v98.66h-12.6Z"/><path class="cls-2" d="M230,157.63a33.74,33.74,0,0,0,16.61,4.86c9.17,0,13.46-4.45,13.46-10,0-5.84-3.58-9-12.89-12.37-12.46-4.31-18.33-11-18.33-19,0-10.84,9-19.73,23.92-19.73a35.42,35.42,0,0,1,17,4.17l-3.15,8.89a27.58,27.58,0,0,0-14.18-3.89c-7.45,0-11.6,4.17-11.6,9.17,0,5.56,4.15,8.06,13.17,11.39,12,4.45,18.19,10.28,18.19,20.29,0,11.81-9.45,20.15-25.92,20.15-7.59,0-14.61-1.81-19.48-4.58Z"/><path class="cls-2" d="M324.73,170.14l-1-8.48h-.43c-3.87,5.28-11.31,10-21.2,10-14,0-21.19-9.59-21.19-19.32,0-16.26,14.89-25.15,41.67-25v-1.39c0-5.56-1.57-15.56-15.75-15.56a35.32,35.32,0,0,0-18,5l-2.86-8.06c5.73-3.61,14-6,22.77-6,21.19,0,26.35,14,26.35,27.51V154a91.76,91.76,0,0,0,1.15,16.12Zm-1.86-34.32c-13.75-.28-29.36,2.08-29.36,15.15,0,7.92,5.44,11.67,11.89,11.67,9,0,14.75-5.56,16.76-11.26a12.46,12.46,0,0,0,.71-3.89Z"/><path class="cls-2" d="M351.65,121.08c0-6.95-.14-12.65-.57-18.2h11l.57,10.84h.43c3.87-6.39,10.31-12.37,21.77-12.37a20.46,20.46,0,0,1,19.62,13.48h.29a28,28,0,0,1,7.73-8.75c4.15-3.06,8.74-4.72,15.32-4.72,9.17,0,22.77,5.84,22.77,29.18v39.61H438.29V132.06c0-12.92-4.87-20.71-15-20.71-7.16,0-12.74,5.14-14.89,11.12a19.59,19.59,0,0,0-1,6.11v41.55H395v-40.3c0-10.7-4.87-18.48-14.46-18.48-7.88,0-13.6,6.11-15.61,12.23a16.43,16.43,0,0,0-1,6v40.58H351.65Z"/><path class="cls-2" d="M481.46,84c.14,4.17-3,7.5-8,7.5a7.38,7.38,0,0,1-7.59-7.5,7.57,7.57,0,0,1,7.88-7.64A7.37,7.37,0,0,1,481.46,84Zm-14,86.16V102.88H480v67.26Z"/><path class="cls-2" d="M545,159.71h-.29c-3.72,6.67-11.46,12-22.63,12-16.18,0-29.36-13.62-29.36-34,0-25.15,16.76-36.27,31.36-36.27,10.74,0,17.9,5.14,21.34,11.67h.29l.43-10.14h11.89c-.29,5.7-.43,11.53-.43,18.48v76.29H545Zm0-29.6a20.2,20.2,0,0,0-.57-5.14,18.3,18.3,0,0,0-18-13.9c-13,0-20.91,10.7-20.91,25.85,0,13.34,6.59,25,20.48,25,8.16,0,15.18-4.86,18-13.34a20,20,0,0,0,1-5.84Z"/><path class="cls-2" d="M590.3,110.8a10.57,10.57,0,0,1-21.11,0c0-5.53,4.7-10,10.59-10S590.3,105.27,590.3,110.8Zm-18.48,0a7.84,7.84,0,0,0,8,8,7.74,7.74,0,0,0,7.83-7.9,7.93,7.93,0,1,0-15.85-.06Zm6.33,5.23h-2.38v-10a21.42,21.42,0,0,1,3.95-.3,6.57,6.57,0,0,1,3.57.73,2.73,2.73,0,0,1,1,2.19,2.58,2.58,0,0,1-2.13,2.31v.12a3,3,0,0,1,1.88,2.43,7.54,7.54,0,0,0,.75,2.49h-2.57a8.51,8.51,0,0,1-.81-2.43c-.19-1.09-.81-1.58-2.13-1.58h-1.13Zm.06-5.66h1.13c1.32,0,2.38-.42,2.38-1.46s-.69-1.52-2.19-1.52a5.89,5.89,0,0,0-1.32.12Z"/></g></svg>