<svg xmlns="http://www.w3.org/2000/svg" viewBox="0 0 623.62 255.12"><defs><style>.cls-1{fill:#fff;}.cls-2{fill:#26b7cd;}</style></defs><title>brumbrum</title><g id="BG"><rect class="cls-1" width="623.62" height="255.12"/></g><g id="Logo"><path class="cls-2" d="M540.4,110.72a4,4,0,0,0-4-4H479.17a4,4,0,0,0,0,8.07h57.1A4,4,0,0,0,540.4,110.72Z"/><path class="cls-2" d="M601.58,133.28a20.34,20.34,0,0,0-20.41-20.41h-3.23a44.71,44.71,0,0,0-37.63-20.41h-44.9a4,4,0,0,0,0,8.08h44.9a36.85,36.85,0,0,1,33,20.4h7.9a12.26,12.26,0,0,1,12.29,12.29,12,12,0,0,1-1.39,5.61,18.42,18.42,0,0,0-14.94-7.67,18.19,18.19,0,0,0-17.85,14.31H537.89a18.31,18.31,0,0,0-35.71-.14,8.09,8.09,0,0,1,1.48-16.05h0a4,4,0,0,0,0-8.08H485.32a4,4,0,0,0,0,8.08h4.26a16,16,0,0,0-2.15,8.11,16.39,16.39,0,0,0,14.71,16.29,18.42,18.42,0,0,0,17.94,14.39,18.15,18.15,0,0,0,17.85-14.3h21.35a18.32,18.32,0,0,0,36.2-4,10.27,10.27,0,0,0-.09-1.66A21.28,21.28,0,0,0,601.58,133.28Zm-81.64,26.46a10.27,10.27,0,1,1,10.28-10.27A10.27,10.27,0,0,1,519.94,159.74Zm57.19,0a10.27,10.27,0,1,1,10.27-10.27A10.38,10.38,0,0,1,577.13,159.74Z"/><path class="cls-2" d="M48.46,106.68c-6.28,0-10.81,2-13.54,5.92V92.91c0-4.66-1.12-5.87-5.61-5.87H27.65C23.17,87,22,88.2,22,92.91v45.53c0,15.56,9.42,22.83,23.55,22.83,15.79,0,23.68-7.54,23.68-22.74v-8.39C69.27,115,62.1,106.68,48.46,106.68Zm7.9,31.4c0,7.31-2,10.31-10.63,10.31-8.39,0-10.81-3-10.81-10.31v-8.3c0-7.18,2.37-10.32,10.81-10.32s10.63,3.05,10.63,10.32Z"/><path class="cls-2" d="M99.37,119.42h1.12c4,.36,5-.4,5-5v-1.17c0-4.89-1.16-6.68-5-6.68H99.37c-13.46,0-20.59,6.55-20.59,18.92V154c0,4.67,1.12,5.88,5.61,5.88h1.88c4.49,0,5.61-1.17,5.61-5.88V126.6C91.79,121.53,93.36,119.42,99.37,119.42Z"/><path class="cls-2" d="M157,140.19V113.72c0-4.66-1.12-5.87-5.61-5.87h-1.88c-4.49,0-5.61,1.16-5.61,5.87V140.1c0,5.87-1.79,8.25-9.42,8.25s-9.64-2.38-9.64-8.25V113.72c0-4.66-1.12-5.87-5.61-5.87h-1.88c-4.49,0-5.61,1.16-5.61,5.87V140.1c0,13.77,7.63,21.08,22.56,21.08C150.05,161.18,157,154.36,157,140.19Z"/><path class="cls-2" d="M195.94,127.63V154c0,4.66,1.12,5.88,5.6,5.88h1.53c4.48,0,5.6-1.17,5.6-5.88V127.63c0-5.88,1.66-8.26,8.39-8.26,6.41,0,7.94,2.38,7.94,8.26V154c0,4.66,1.12,5.88,5.61,5.88h1.88c4.48,0,5.61-1.17,5.61-5.88V127.63c0-14.18-6.64-21.08-21-21.08-6.64,0-11.53,2.24-14.53,6.68-2.87-4.49-7.81-6.68-14.67-6.68-13.81,0-21.21,7.31-21.21,21.08V154c0,4.66,1.12,5.88,5.6,5.88h1.89c4.48,0,5.6-1.17,5.6-5.88V127.63c0-5.88,1.8-8.26,8.17-8.26S195.94,121.89,195.94,127.63Z"/><path class="cls-2" d="M294.43,130.05c0-15-7.18-23.46-20.81-23.46-6.28,0-10.81,2-13.55,5.92V92.91c0-4.66-1.12-5.87-5.6-5.87h-1.8c-4.48,0-5.6,1.16-5.6,5.87v45.53c0,15.52,9.42,22.74,23.54,22.74,15.79,0,23.69-7.54,23.69-22.74l.13-8.39Zm-13,8c0,7.31-2,10.31-10.63,10.31-8.39,0-10.81-3-10.81-10.31v-8.3c0-7.18,2.38-10.32,10.81-10.32s10.63,3.05,10.63,10.32Z"/><path class="cls-2" d="M325.65,106.68h-1.12c-13.46,0-20.59,6.55-20.59,18.93v28.57c0,4.66,1.12,5.88,5.6,5.88h1.89c4.48,0,5.61-1.17,5.61-5.88V126.69c0-5.12,1.61-7.18,7.62-7.18h1.12c4,.36,5-.4,5-5v-1.17C330.67,108.34,329.5,106.68,325.65,106.68Z"/><path class="cls-2" d="M382.16,140.19V113.72c0-4.66-1.12-5.87-5.61-5.87h-1.88c-4.49,0-5.61,1.16-5.61,5.87V140.1c0,5.87-1.79,8.25-9.42,8.25S350,146,350,140.1V113.72c0-4.66-1.12-5.87-5.61-5.87h-1.88c-4.48,0-5.61,1.16-5.61,5.87V140.1c0,13.77,7.63,21.08,22.57,21.08C375.16,161.18,382.16,154.36,382.16,140.19Z"/><path class="cls-2" d="M421.05,127.63V154c0,4.66,1.12,5.88,5.6,5.88h1.53c4.48,0,5.6-1.17,5.6-5.88V127.63c0-5.88,1.66-8.26,8.39-8.26,6.42,0,7.94,2.38,7.94,8.26V154c0,4.66,1.12,5.88,5.61,5.88h1.88c4.49,0,5.61-1.17,5.61-5.88V127.63c0-14.18-6.64-21.08-21-21.08-6.64,0-11.53,2.24-14.53,6.68-2.87-4.49-7.8-6.68-14.67-6.68-13.81,0-21.21,7.31-21.21,21.08V154c0,4.66,1.12,5.88,5.6,5.88h1.89c4.48,0,5.61-1.17,5.61-5.88V127.63c0-5.88,1.79-8.26,8.16-8.26S421.05,121.89,421.05,127.63Z"/></g></svg>