<svg xmlns="http://www.w3.org/2000/svg" viewBox="0 0 623.62 255.12"><defs><style>.cls-1{fill:#fff;}.cls-2{fill:#001524;}</style></defs><title>dazn</title><g id="BG"><rect class="cls-1" width="623.62" height="255.12"/></g><g id="Logo"><path class="cls-2" d="M301,68.92a20.29,20.29,0,0,0-8.24-9.06q-5.22-2.94-13.15-2.93H261.89a4.77,4.77,0,0,0-3,.64,3.54,3.54,0,0,0-.74,2.64V115.1a3.48,3.48,0,0,0,.74,2.63,4.76,4.76,0,0,0,3,.65h19.84q14.06,0,19.24-12a24,24,0,0,0,1.68-5.57,44.69,44.69,0,0,0,.47-7.11V82a50.39,50.39,0,0,0-.47-7.76A20,20,0,0,0,301,68.92Zm-12.34,25a31.38,31.38,0,0,1-.47,5.91,9.74,9.74,0,0,1-1.55,3.84,5.73,5.73,0,0,1-2.85,2.07,13.4,13.4,0,0,1-4.36.61h-7.07V69h7.07c3.28,0,5.64,1,7.08,2.89s2.15,5.11,2.15,9.54Zm11.29,91.55H275.67l25.53-35.9a6.3,6.3,0,0,0,.78-1.39,3.64,3.64,0,0,0,.17-1.21V140a3.54,3.54,0,0,0-.73-2.64,4.89,4.89,0,0,0-3-.64H261.56a3.35,3.35,0,0,0-2.59.73,5.19,5.19,0,0,0-.61,3.07v5.18a5.17,5.17,0,0,0,.61,3.06,3.34,3.34,0,0,0,2.59.74h22.76l-25.18,35.9a3.87,3.87,0,0,0-1,2.41v7.08a3.52,3.52,0,0,0,.74,2.64,4.82,4.82,0,0,0,3,.64h38a3.39,3.39,0,0,0,2.6-.73,5.28,5.28,0,0,0,.6-3.07v-5.17a5.31,5.31,0,0,0-.6-3.07A3.39,3.39,0,0,0,299.92,185.42ZM419.14,20.23H204.48v94.93l12.4,12.4L204.48,140v94.93H419.14V140l-12.4-12.4,12.4-12.4ZM390.79,131.54l14.89,14.89v75H217.94v-75l14.87-14.88a5.63,5.63,0,0,0,0-8L217.94,108.7v-75H405.68v75l-14.89,14.9A5.63,5.63,0,0,0,390.79,131.54Zm-28.65,5.2h-5.78a4.82,4.82,0,0,0-3,.64,3.54,3.54,0,0,0-.73,2.64v32.54l-17.08-32.63a6.11,6.11,0,0,0-2-2.63,7.72,7.72,0,0,0-3.49-.56h-5.35a4.86,4.86,0,0,0-3,.64A3.59,3.59,0,0,0,321,140v54.89a3.68,3.68,0,0,0,.69,2.64,4.57,4.57,0,0,0,2.93.64h5.87a4.77,4.77,0,0,0,3-.64,3.52,3.52,0,0,0,.74-2.64V162.29L351.27,195a6.18,6.18,0,0,0,2,2.63,7.63,7.63,0,0,0,3.5.56h5.34a4.79,4.79,0,0,0,3-.64,3.53,3.53,0,0,0,.73-2.64V140a3.54,3.54,0,0,0-.73-2.64A4.86,4.86,0,0,0,362.14,136.74Zm8.9-22.07L352.92,59.86a4.78,4.78,0,0,0-1.37-2.37,4.33,4.33,0,0,0-2.51-.56H339a4.36,4.36,0,0,0-2.55.6,4.4,4.4,0,0,0-1.34,2.33l-18.28,54.81a3,3,0,0,0-.34,1.72c0,1.33.8,2,2.41,2h7.5a15,15,0,0,0,1.68-.08,1.91,1.91,0,0,0,1-.44,2.89,2.89,0,0,0,.69-1c.2-.47.42-1.07.65-1.81l2.84-9.59H354l2.93,9.41a11.25,11.25,0,0,0,.69,1.9,3.58,3.58,0,0,0,.78,1.08,1.93,1.93,0,0,0,1,.48,12.85,12.85,0,0,0,1.55.08h8c1.6,0,2.41-.66,2.41-2a4.84,4.84,0,0,0,0-.81A7.93,7.93,0,0,0,371,114.67ZM336.62,94.39l6.9-23.23,7.07,23.23Z"/></g></svg>