<svg xmlns="http://www.w3.org/2000/svg" xmlns:xlink="http://www.w3.org/1999/xlink" viewBox="0 0 623.62 255.12"><defs><style>.cls-1{fill:none;}.cls-2{fill:#fff;}.cls-3{clip-path:url(#clip-path);}.cls-4{fill:#fed10a;}.cls-5{fill:#24bbb1;}.cls-6{fill:#ef5098;}.cls-7{fill:#17a8e0;}.cls-8{fill:#93c83e;}.cls-9{fill:#0779a1;}.cls-10{fill:#231f20;}</style><clipPath id="clip-path"><rect class="cls-1" x="14.17" y="25.52" width="595.27" height="204.08"/></clipPath></defs><title>elastic</title><g id="BG"><rect class="cls-2" width="623.62" height="255.12"/></g><g id="Logo"><g class="cls-3"><path class="cls-2" d="M218.94,132.44a40.31,40.31,0,0,0-26.66-38A57.86,57.86,0,0,0,88.56,49.53,30.73,30.73,0,0,0,41,84.53a40.85,40.85,0,0,0-26.88,38.18,40.36,40.36,0,0,0,26.79,38.13,59,59,0,0,0-1.06,11,57.7,57.7,0,0,0,104.62,33.64,30.69,30.69,0,0,0,47.64-34.88,40.84,40.84,0,0,0,26.88-38.17"/></g><path class="cls-4" d="M94.62,113.41l44.83,20.44,45.23-39.63A50.57,50.57,0,0,0,93.39,55.69l-7.53,39,8.76,18.68Z"/><path class="cls-5" d="M48.21,160.88a51.94,51.94,0,0,0-1,10.1,50.69,50.69,0,0,0,92.61,28.5l7.46-38.9-10-19.05L92.32,121,48.21,160.88Z"/><path class="cls-6" d="M47.93,83.3l30.72,7.26,6.73-34.93A24.27,24.27,0,0,0,47.93,83.3"/><path class="cls-7" d="M45.26,90.62a33.89,33.89,0,0,0-1.47,63.84l43.1-39L79,98.59l-33.72-8Z"/><path class="cls-8" d="M147.71,199.47a24.22,24.22,0,0,0,37.37-27.62l-30.69-7.18-6.68,34.8Z"/><path class="cls-9" d="M154,156.62l33.8,7.9A34.18,34.18,0,0,0,211,132.34a33.84,33.84,0,0,0-21.84-31.6L145,139.47l9,17.15Z"/><path class="cls-10" d="M296.71,138.26q0-13-4.16-18.35T279,114.54q-9.39,0-14.12,5.65T260,138.26Zm3.81,30.63,4.1-.42.28,8.33a203.49,203.49,0,0,1-27.53,2.25q-15.24,0-21.6-8.82t-6.35-27.45q0-37.12,29.5-37.13,14.26,0,21.32,8t7.06,25.05l-.57,8H260.15q0,11.72,4.24,17.36t14.75,5.65q10.51,0,21.38-.85Z"/><polygon class="cls-10" points="322.06 178.51 322.06 85.82 332.65 85.82 332.65 178.51 322.06 178.51 322.06 178.51"/><path class="cls-10" d="M355.84,157.17q0,13,10.73,13a57,57,0,0,0,18.92-3.25l3.24-1.13V142.49l-20.89,2q-6.34.57-9.17,3.67t-2.83,9Zm43.48-28.79V164c0,3.53,8.79,3.39,8.79,3.39l-.55,9.35c-7.43,0-13.59.62-17.29-3a61.38,61.38,0,0,1-25.39,5.29q-9.75,0-14.83-5.5T345,157.74q0-10.31,5.23-15.18t16.37-6l22.16-2.11v-6.07q0-7.2-3.1-10.31a11.45,11.45,0,0,0-8.47-3.1l-27.82,0v-9.34h27.11q12,0,17.44,5.51t5.43,17.22Z"/><path class="cls-10" d="M440.64,115.11q-15.39,0-15.39,10.73,0,4.93,3.53,7t16.1,4.24q12.56,2.19,17.78,6.14T467.88,158q0,10.88-7,15.95t-20.4,5.08c-5.84,0-25.31-2.16-25.31-2.16l.57-9.17C427,168.8,435,169.6,440.5,169.6s9.62-.87,12.49-2.62,4.31-4.65,4.31-8.75-1.23-6.87-3.67-8.33-7.82-2.84-16.1-4.16-14.16-3.25-17.64-5.79-5.22-7.24-5.22-14.11,2.42-12,7.27-15.25,10.89-4.94,18.14-4.94c5.73,0,25.65,1.46,25.65,1.46v9.23c-10.47-.48-19.07-1.23-25.09-1.23Z"/><path class="cls-10" d="M519,116.24H496.5V150q0,12.15,1.77,16t8.39,3.81l12.57-.85.7,8.75a95.69,95.69,0,0,1-14.4,1.55q-11,0-15.24-5.36t-4.24-20.47V116.24H476v-9.18h10V85.46H496.5v21.6H519v9.18Z"/><path class="cls-10" d="M533.66,178.51V107.06h10.59v71.45Zm0-80.47V85.76h10.59V98Z"/><path class="cls-10" d="M590.11,105.65a123.66,123.66,0,0,1,15.81,1.69l3.39.43-.43,8.61a164.7,164.7,0,0,0-16.65-1.27q-12,0-16.31,5.72T571.62,142q0,15.45,4,21.53t16.73,6.07L609,168.33l.43,8.75a146.39,146.39,0,0,1-19.62,2q-16.51,0-22.8-8.47T560.75,142q0-20.11,6.77-28.23t22.59-8.12Z"/></g></svg>