<?xml version="1.0" encoding="UTF-8"?>
<!-- Generator: Adobe Illustrator 16.0.3, SVG Export Plug-In . SVG Version: 6.00 Build 0)  -->
<!DOCTYPE svg PUBLIC "-//W3C//DTD SVG 1.1//EN" "http://www.w3.org/Graphics/SVG/1.1/DTD/svg11.dtd">
<svg version="1.1" xmlns="http://www.w3.org/2000/svg" xmlns:xlink="http://www.w3.org/1999/xlink" x="0px" y="0px" width="623.6px" height="255.1px" viewBox="0 0 623.6 255.1" style="enable-background:new 0 0 623.6 255.1;" xml:space="preserve">
<style type="text/css">
<![CDATA[
	.st0{fill:#222221;}
	.st1{fill:#FFFFFF;}
]]>
</style>
<g id="BG">
	<rect class="st1" width="623.6" height="255.1"/>
</g>
<g id="Logo">
	<g>
		<g>
			<path class="st0" d="M417.1,175h-15V80.1h15V175z"/>
			<path class="st0" d="M492.7,175l-42.9-73.6V175h-14.7V80.1h19l43.1,74.6V80.1H512V175H492.7z"/>
			<path class="st0" d="M596.5,163.8c-3.6,5.6-11.7,12.7-27.4,12.7c-34.8,0-42.1-31-42.1-48.5c0-22.3,10.9-49.5,43.9-49.5     c31,0,36.3,24.6,36.8,31.2h-16c-2-12.4-10.4-18-21.8-18c-19.5,0-27.2,18.5-27.2,35.8c0,18,7.1,35.8,27.2,35.8     c18.8,0,25.9-11.7,25.9-24.9h-25.9v-12.7h40.1V175h-13.4V163.8z"/>
		</g>
		<g>
			<path class="st0" d="M28.6,93.3v30.2h43.9v13.4H28.6V175h-15V80.1h61.4v13.2H28.6z"/>
			<path class="st0" d="M89.5,175V80.1h15v81.7h45.4V175H89.5z"/>
			<path class="st0" d="M191.8,176.5c-24.4,0-41.9-17.8-41.9-48.7c0-31,17.5-49.2,41.9-49.2c24.1,0,41.9,18.3,41.9,49     C233.7,158.8,215.9,176.5,191.8,176.5z M191.8,91.8c-16.5,0-26.1,12.4-26.1,35.8c0,22.6,9.6,35.5,26.1,35.5     c16.5,0,26.1-12.9,26.1-35.5C217.9,104.5,208.3,91.8,191.8,91.8z"/>
		</g>
		<g>
			<path class="st0" d="M362,104.2v44.7c0,6.8-5.6,12.4-12.4,12.4c-6.9,0-12.4-5.6-12.4-12.4c0,0,0-44.7,0-44.9l0,0l0,0     c-0.5-12.2-10.4-22.1-22.8-22.1c-12.4,0-22.6,9.9-22.8,22.3l0,0v0.8v44.4c0,6.9-5.6,12.4-12.4,12.4c-6.8,0-12.4-5.6-12.4-12.4     v-41.9c0-15.2-12.4-27.4-27.4-27.4v15c6.9,0,12.4,5.6,12.4,12.4v41.4c0,15.2,12.4,27.4,27.4,27.4c15,0,27.4-12.4,27.4-27.4v-44.1     c0-4.3,3.6-7.9,7.9-7.9c4.3,0,7.6,3.3,7.9,7.4v44.7c0,15.2,12.4,27.4,27.4,27.4c15,0,27.4-12.4,27.4-27.4v-41.4     c0-6.8,5.6-12.4,12.4-12.4v-15C375.5,80.1,363.8,90.5,362,104.2z"/>
		</g>
	</g>
</g>
</svg>