<svg xmlns="http://www.w3.org/2000/svg" viewBox="0 0 623.62 255.12"><defs><style>.cls-1{fill:#fff;}.cls-2{fill:#0062ff;}</style></defs><title>ibm</title><g id="BG"><rect class="cls-1" width="623.62" height="255.12"/></g><g id="Logo"><path id="IBM_" data-name="IBM®" class="cls-2" d="M108.54,196.45H186.8v11.18H108.54Zm0-10.16H186.8V175.11H108.54Zm22.36-21.35h33.54V153.76H130.9Zm0-21.35h33.54V132.41H130.9Zm0-21.34h33.54V111.07H130.9Zm33.54-32.53H130.9V100.9h33.54Zm-55.9-10.16H186.8V68.38H108.54Zm0-21.35H186.8V47H108.54ZM198,186.29H317.28a42.46,42.46,0,0,0,4.5-11.18H198Zm110-53.88h-87.6v11.18h96.92A42.87,42.87,0,0,0,308,132.41Zm-87.6-21.34v11.18H308a42.87,42.87,0,0,0,9.32-11.18Zm96.93-42.69H198V79.56H321.78A42.19,42.19,0,0,0,317.28,68.38ZM280.32,47H198V58.21H309.12A42.54,42.54,0,0,0,280.32,47Zm-60,53.87h33.54V89.72H220.35Zm65,0h36.11A42.49,42.49,0,0,0,323,89.72H285.4Zm-65,64h33.54V153.76H220.35Zm65-11.18v11.18H323a42.49,42.49,0,0,0-1.5-11.18ZM198,207.63h82.33a42.39,42.39,0,0,0,28.8-11.18H198Zm223.6,0,3.9-11.18h-7.77Zm-7.44-21.34h14.91L433,175.11H410.23Zm-7.49-21.35h29.9l3.92-11.18H402.73Zm-7.5-21.35h44.89L448,132.41H395.24ZM354.52,100.9h60.41L411,89.72H354.52Zm81.19-21.34h75.34V68.38H439.6ZM447,47l-3.89,11.18h67.92V47ZM332.16,207.63h55.9V196.45h-55.9Zm0-21.34h55.9V175.11h-55.9Zm22.36-21.35h33.54V153.76H354.52Zm0-21.35h33.54V132.41H354.52ZM488.69,89.72H432.17l-3.89,11.18h60.41Zm-33.54,32.53h33.54V111.07H424.75l-3.14,9-3.15-9H354.52v11.18h33.54V112l3.61,10.28h59.87L455.15,112Zm33.54,10.16H455.15v11.18h33.54Zm-33.54,32.53h33.54V153.76H455.15Zm0,21.35h55.9V175.11h-55.9Zm0,21.34h55.9V196.45h-55.9ZM407.51,79.56l-3.89-11.18H332.16V79.56Zm-7.43-21.35L396.19,47h-64V58.21Zm123,141.08a8.54,8.54,0,1,1,8.54,8.8A8.57,8.57,0,0,1,523.1,199.29Zm15.07.56v-1.11a6.53,6.53,0,0,0-13.06,0v1.11a6.53,6.53,0,0,0,13.06,0Zm-7.81,4h-2.18v-8.93h4.06a2.71,2.71,0,0,1,3,2.82,2.64,2.64,0,0,1-1.62,2.69l2,3.42h-2.39l-1.66-3.08h-1.24Zm1.62-4.7c.69,0,1.07-.3,1.07-.94v-.64c0-.64-.38-.94-1.07-.94h-1.62v2.52Z"/></g></svg>