<svg xmlns="http://www.w3.org/2000/svg" viewBox="0 0 623.62 255.12"><defs><style>.cls-1{fill:#fff;}.cls-2{fill-rule:evenodd;}</style></defs><title>linkme</title><g id="BG"><rect class="cls-1" width="623.62" height="255.12"/></g><g id="Logo"><g id="Page"><g id="Desktop-V3-HD"><path id="LM_vettoriale" data-name="LM vettoriale" class="cls-2" d="M14.17,71.78h25V161H91.84v22.42H14.17V71.78Zm92.38,0h25V183.37h-25Zm46.44,0h23.79l47.76,72.44V71.78h24.63V183.37H226.53l-48.92-73.78v73.78H153V71.78Zm307.06,0h79V93.86H485v21.75h39.17V137H485v24.1h54v22.25h-79V71.78Zm-45.24,0h0l-28.09,52.36L358,71.78H334.19V183.37H358V114.75l22,39.17h12.89l22-41.92v71.37h23.76V71.78Zm-95.34,0H292.12c-2.9,26.11-20.83,46.72-27.4,53.46a3.39,3.39,0,0,0,0,4.71c6.57,6.74,24.5,27.34,27.4,53.45h27.35c-.5-10.65-4.73-31.94-27.45-55.13a1,1,0,0,1,0-1.35c22.72-23.19,27-44.49,27.45-55.14ZM581.2,128.24c-22.73,23.19-27,44.48-27.45,55.13h27.34c2.91-26.11,20.83-46.71,27.4-53.45a3.37,3.37,0,0,0,0-4.71c-6.57-6.74-24.49-27.35-27.4-53.46H553.75c.5,10.65,4.72,32,27.45,55.14a1,1,0,0,1,0,1.35Z"/></g></g></g></svg>