<svg xmlns="http://www.w3.org/2000/svg" viewBox="0 0 623.62 255.12"><defs><style>.cls-1{fill:#fff;}.cls-2{fill:#4266b0;}</style></defs><title>nearform</title><g id="BG"><rect class="cls-1" width="623.62" height="255.12"/></g><g id="Logo"><path class="cls-2" d="M101.3,84.73H79.82a3.09,3.09,0,0,0-3.09,3.07v26.25L59.86,92a18.3,18.3,0,0,0-14.61-7.23H28.57a10,10,0,0,0-9.95,9.92v65.73a10,10,0,0,0,10,10H50.11a3.07,3.07,0,0,0,3.08-3V140.73L70,163.06a18.31,18.31,0,0,0,14.68,7.33H101.3a10,10,0,0,0,10-10h0V94.65A10,10,0,0,0,101.3,84.73Zm-54,79.48H28.5a4,4,0,0,1-3.95-4h0V103.32l22.77,30Zm54.4,0H84.59a12.39,12.39,0,0,1-9.79-4.82L26,95.57a3,3,0,0,1,.54-4.16,3,3,0,0,1,1.81-.61h17a12.28,12.28,0,0,1,9.79,4.77L104,159.33a3,3,0,0,1-.35,4.18A2.93,2.93,0,0,1,101.72,164.21Zm3.61-12.64L82.6,121.67V90.8h18.83a4,4,0,0,1,3.9,4Z"/><path class="cls-2" d="M225.94,163H212.25l-34.05-39v39H160.55V92H174l34.32,40V92h17.65Z"/><path class="cls-2" d="M281,142.35l-.09.31H245a10.85,10.85,0,0,0,11.38,8.15,8.75,8.75,0,0,0,7.73-3.61h16.71c-2.4,10.44-12.12,17-24.64,17-16.62,0-27.69-11.07-27.69-26.54s10.84-26.42,26.95-26.42c14.74,0,25.9,10.13,25.9,25.29A35.06,35.06,0,0,1,281,142.35Zm-36.26-9.61h20.69a9.38,9.38,0,0,0-10-8.45A10.36,10.36,0,0,0,244.78,132.74Z"/><path class="cls-2" d="M339.13,163H322.21v-2.82a25.37,25.37,0,0,1-13.9,3.87c-13.67,0-25.16-11.4-25.16-26.43s11.49-26.43,25.16-26.43a25.29,25.29,0,0,1,13.9,3.87v-2.73h16.92Zm-16.92-17.56V129.89a13.11,13.11,0,0,0-10.55-4.8,12.64,12.64,0,0,0,0,25.18A13,13,0,0,0,322.21,145.48Z"/><path class="cls-2" d="M377.43,127.63c-8.26.31-13.48,2.5-17.45,6.47V163H343.05V112.42h17v5.42a25.44,25.44,0,0,1,17.45-6.27Z"/><path class="cls-2" d="M432.78,107.56V92H379.9V163h17.67V138h26.48v-.3a30.58,30.58,0,0,1,3.8-15H397.48v-15Z"/><path class="cls-2" d="M518.08,127.63c-8.26.31-13.48,2.5-17.44,6.47V163H483.72V112.42h16.92v5.42a25.3,25.3,0,0,1,17.44-6.27Z"/><path class="cls-2" d="M605,134.1V163H588V136.83c0-7.23-3.45-10.66-9-10.66a9.83,9.83,0,0,0-7.73,4.17c.11,1.25.22,2.51.22,3.76V163H554.49V136.83c0-7.23-3.61-10.66-9-10.66-2.62,0-5.13,1.25-7.62,4.48V163h-17V112.46h16.93v3a17.83,17.83,0,0,1,12.64-4.59A19.84,19.84,0,0,1,566,117.59a24.77,24.77,0,0,1,18-6.78C596,110.81,605,119.68,605,134.1Z"/><path class="cls-2" d="M481.62,137.66c0,15.46-11.49,27-27.47,27s-27.46-11.49-27.46-27,11.49-26.43,27.46-26.43S481.62,122.39,481.62,137.66Zm-16,0a11.45,11.45,0,1,0-22.88-.91,6.91,6.91,0,0,0,0,.91c0,6.79,4.6,12.23,11.48,12.23s11.4-5.35,11.4-12.14Z"/></g></svg>