<svg xmlns="http://www.w3.org/2000/svg" viewBox="0 0 623.62 255.12"><defs><style>.cls-1{fill:#fff;}.cls-2{fill:#1a171b;}.cls-3,.cls-6{fill:#e96522;}.cls-4{fill:#343434;}.cls-5{fill:#f8b31f;}.cls-5,.cls-6{fill-rule:evenodd;}</style></defs><title>opencontent</title><g id="BG"><rect class="cls-1" width="623.62" height="255.12"/></g><g id="Logo"><path class="cls-2" d="M164.22,163.36a19.67,19.67,0,0,1-8.22-1.6,16.27,16.27,0,0,1-5.87-4.43,18.38,18.38,0,0,1-3.49-6.65,31,31,0,0,1,0-16.6,18.43,18.43,0,0,1,3.49-6.66A16.69,16.69,0,0,1,156,123a21.42,21.42,0,0,1,16.44,0,16.81,16.81,0,0,1,5.88,4.46,18.56,18.56,0,0,1,3.48,6.66,30.78,30.78,0,0,1,0,16.6,18.52,18.52,0,0,1-3.48,6.65,16.39,16.39,0,0,1-5.88,4.43A19.6,19.6,0,0,1,164.22,163.36Zm0-6.18q5.42,0,8-3.92t2.58-10.88q0-7-2.58-10.85t-8-3.87q-5.4,0-7.94,3.87t-2.55,10.85q0,7,2.55,10.88T164.22,157.18Z"/><path class="cls-2" d="M193,122.26a13.69,13.69,0,0,1,1.6-.24c.55,0,1.11-.08,1.69-.08s1.06,0,1.64.08a13.76,13.76,0,0,1,1.64.24,4.22,4.22,0,0,1,.2,1q.12.83.24,1.77c.07.62.15,1.22.23,1.8a10.94,10.94,0,0,1,.12,1.09,15.34,15.34,0,0,1,1.88-2.42,12.39,12.39,0,0,1,2.62-2.12,13.67,13.67,0,0,1,3.45-1.49,15.66,15.66,0,0,1,4.26-.54,17.92,17.92,0,0,1,6.54,1.17,13.11,13.11,0,0,1,5.17,3.64,17.51,17.51,0,0,1,3.37,6.27,29.79,29.79,0,0,1,1.21,9q0,10.33-5.6,16.17t-15.86,5.83a28.48,28.48,0,0,1-3.52-.23,21.28,21.28,0,0,1-3.13-.63v18.4a19.57,19.57,0,0,1-2,.24c-.7.05-1.34.08-1.92.08s-1.21,0-1.91-.08a16.2,16.2,0,0,1-1.92-.24Zm7.75,33.59a16.06,16.06,0,0,0,3.05.78,27.92,27.92,0,0,0,4.07.24,14.32,14.32,0,0,0,5.17-.91,10.15,10.15,0,0,0,4-2.78,13.6,13.6,0,0,0,2.67-4.73,21.09,21.09,0,0,0,1-6.78c0-4.17-.78-7.49-2.31-9.94s-4.06-3.68-7.56-3.68a10.41,10.41,0,0,0-3.76.7,9.46,9.46,0,0,0-3.21,2.12,10.42,10.42,0,0,0-2.27,3.56,13.71,13.71,0,0,0-.86,5.13Z"/><path class="cls-2" d="M245.11,144.26q.15,6.57,3.4,9.63t9.59,3.05A28.87,28.87,0,0,0,268.67,155a11.52,11.52,0,0,1,1,2.85,18.41,18.41,0,0,1,.47,3.33,26.36,26.36,0,0,1-5.68,1.65,39.91,39.91,0,0,1-6.85.54,26,26,0,0,1-9.39-1.52A16.53,16.53,0,0,1,238.06,151a28.2,28.2,0,0,1-1.18-8.34,29.37,29.37,0,0,1,1.14-8.33,18.93,18.93,0,0,1,3.48-6.74,16.89,16.89,0,0,1,5.92-4.54,19.54,19.54,0,0,1,8.41-1.68,17.54,17.54,0,0,1,7.28,1.4,14.87,14.87,0,0,1,5.25,3.88,16.85,16.85,0,0,1,3.21,5.87,24.06,24.06,0,0,1,1.1,7.4c0,.73,0,1.5-.08,2.31s-.11,1.51-.16,2.08Zm19.88-5.8a14.76,14.76,0,0,0-.58-4.18,10.66,10.66,0,0,0-1.73-3.49,8.36,8.36,0,0,0-2.89-2.39,9.12,9.12,0,0,0-4.19-.9q-4.78,0-7.32,2.9a14.19,14.19,0,0,0-3.1,8.06Z"/><path class="cls-2" d="M282.85,122.26q.86-.17,1.68-.24c.55,0,1.11-.08,1.68-.08a16.06,16.06,0,0,1,1.61.08c.49,0,1,.13,1.6.24.16.78.32,1.84.47,3.17a28.76,28.76,0,0,1,.24,3.32,16,16,0,0,1,4.77-5,14.9,14.9,0,0,1,3.61-1.72,14.34,14.34,0,0,1,4.46-.66q6.88,0,10.18,4t3.29,11.7v25.45a16.68,16.68,0,0,1-2,.24c-.73.05-1.38.08-2,.08s-1.21,0-1.92-.08a16.75,16.75,0,0,1-1.92-.24V139.09c0-3.71-.57-6.43-1.72-8.18a6.07,6.07,0,0,0-5.48-2.62,11.13,11.13,0,0,0-4.15.78,9.18,9.18,0,0,0-3.44,2.43,11.93,11.93,0,0,0-2.39,4.26,19.51,19.51,0,0,0-.9,6.3v20.36a16.75,16.75,0,0,1-1.92.24c-.71.05-1.35.08-1.92.08s-1.23,0-2-.08a16.23,16.23,0,0,1-1.95-.24Z"/><path class="cls-3" d="M354.49,152.87a16,16,0,0,1,1.57,3.64,17.35,17.35,0,0,1,.62,4.89,23.69,23.69,0,0,1-5.87,1.61,43.94,43.94,0,0,1-5.72.35,22.36,22.36,0,0,1-8.84-1.6,17,17,0,0,1-6.23-4.43,19,19,0,0,1-3.72-6.69,29,29,0,0,1,0-16.72,19.22,19.22,0,0,1,3.68-6.73,17.14,17.14,0,0,1,6.15-4.54,20.69,20.69,0,0,1,8.54-1.65c1.14,0,2.2,0,3.17.08a23.93,23.93,0,0,1,2.77.31,25.79,25.79,0,0,1,2.67.63q1.33.39,3,1a19.29,19.29,0,0,1-.47,4,17.86,17.86,0,0,1-1.48,4.27,25.86,25.86,0,0,0-4.12-1.06,26.72,26.72,0,0,0-4-.27c-3.23,0-5.67,1.05-7.32,3.17s-2.47,5.13-2.47,9q0,6.34,2.67,9.24a9.29,9.29,0,0,0,7.2,2.9c.78,0,1.5,0,2.15,0a14.85,14.85,0,0,0,1.92-.2,12.77,12.77,0,0,0,1.92-.47C352.83,153.45,353.6,153.18,354.49,152.87Z"/><path class="cls-3" d="M380.48,163.36a21.14,21.14,0,0,1-8.57-1.6,16.2,16.2,0,0,1-6-4.47,19.43,19.43,0,0,1-3.6-6.69,27.39,27.39,0,0,1-1.21-8.3,28.16,28.16,0,0,1,1.21-8.38,19.35,19.35,0,0,1,3.6-6.77,16.6,16.6,0,0,1,6-4.5,20.64,20.64,0,0,1,8.57-1.65,20.94,20.94,0,0,1,8.62,1.65,17,17,0,0,1,6.11,4.5,18.72,18.72,0,0,1,3.6,6.77A29.16,29.16,0,0,1,400,142.3a28.37,28.37,0,0,1-1.17,8.3,18.78,18.78,0,0,1-3.6,6.69,16.57,16.57,0,0,1-6.11,4.47A21.46,21.46,0,0,1,380.48,163.36Zm0-8.45c2.93,0,5-1.09,6.31-3.25s1.92-5.29,1.92-9.36-.64-7.19-1.92-9.36-3.38-3.25-6.31-3.25a6.68,6.68,0,0,0-6.22,3.25q-1.92,3.26-1.92,9.36t1.92,9.36A6.68,6.68,0,0,0,380.48,154.91Z"/><path class="cls-3" d="M408.75,121.94a20.77,20.77,0,0,1,2.19-.35,22.44,22.44,0,0,1,2.43-.12,20.3,20.3,0,0,1,2.35.12c.68.08,1.38.19,2.11.35a4.33,4.33,0,0,1,.43,1.14c.13.5.25,1,.35,1.56s.2,1.09.28,1.61.14,1,.2,1.33a17.59,17.59,0,0,1,1.88-2.35,13.2,13.2,0,0,1,2.54-2.11,13.52,13.52,0,0,1,3.25-1.53,12.86,12.86,0,0,1,4-.59q6.88,0,10.38,3.76t3.48,11.82v25.84a33.12,33.12,0,0,1-11.12,0V139.56a13.35,13.35,0,0,0-1.29-6.5,4.74,4.74,0,0,0-4.5-2.27,10.24,10.24,0,0,0-2.74.39,5.75,5.75,0,0,0-2.55,1.53,8.3,8.3,0,0,0-1.84,3.17,16.63,16.63,0,0,0-.7,5.32v21.22a33.12,33.12,0,0,1-11.12,0Z"/><path class="cls-3" d="M455.81,130.4h-5.09l-.39-1.57L465,110.12h1.8v11.82h9.48c.15.78.25,1.49.31,2.12s.08,1.28.08,2,0,1.44-.08,2.12-.16,1.44-.31,2.27h-9.48v15.89a16,16,0,0,0,.39,3.92,5.8,5.8,0,0,0,1.14,2.35,3.7,3.7,0,0,0,1.84,1.17,9.37,9.37,0,0,0,2.58.32,13.68,13.68,0,0,0,2.31-.2l2-.35a15.9,15.9,0,0,1,.78,3.09,19.4,19.4,0,0,1,.23,2.86c0,.57,0,1.05,0,1.45s-.06.77-.11,1.13a31.56,31.56,0,0,1-7.44.86q-7.12,0-10.88-3.33t-3.76-10.84Z"/><path class="cls-3" d="M493.55,145.59c.21,3.13,1.3,5.4,3.29,6.81a13.22,13.22,0,0,0,7.83,2.11,30.17,30.17,0,0,0,5.44-.5,31.51,31.51,0,0,0,5.28-1.45,17.74,17.74,0,0,1,1.49,3.76,19.42,19.42,0,0,1,.71,4.69,38.13,38.13,0,0,1-13.79,2.35,26.76,26.76,0,0,1-9.66-1.56,17.11,17.11,0,0,1-6.58-4.35,17.42,17.42,0,0,1-3.76-6.61,27.69,27.69,0,0,1-1.21-8.38,27.18,27.18,0,0,1,1.25-8.38,19.38,19.38,0,0,1,3.72-6.81,17.53,17.53,0,0,1,6.11-4.58,19.88,19.88,0,0,1,8.49-1.69,18.09,18.09,0,0,1,7.52,1.49,16.7,16.7,0,0,1,5.6,4.07,17.13,17.13,0,0,1,3.48,6.15,24.29,24.29,0,0,1,1.17,7.63c0,1,0,2-.11,2.94a22.81,22.81,0,0,1-.28,2.31Zm15.89-7.75a9.88,9.88,0,0,0-2.07-6.07,6.59,6.59,0,0,0-5.36-2.31,7.74,7.74,0,0,0-6,2.19,10.35,10.35,0,0,0-2.42,6.19Z"/><path class="cls-3" d="M528.7,121.94a20.54,20.54,0,0,1,2.2-.35,22.38,22.38,0,0,1,2.42-.12,20.3,20.3,0,0,1,2.35.12c.68.08,1.38.19,2.12.35a4.72,4.72,0,0,1,.43,1.14c.13.5.24,1,.35,1.56s.19,1.09.27,1.61.15,1,.2,1.33a18.42,18.42,0,0,1,1.88-2.35,13.51,13.51,0,0,1,2.54-2.11,13.7,13.7,0,0,1,3.25-1.53,12.88,12.88,0,0,1,4-.59q6.88,0,10.37,3.76t3.49,11.82v25.84a33.12,33.12,0,0,1-11.12,0V139.56a13.34,13.34,0,0,0-1.3-6.5,4.74,4.74,0,0,0-4.5-2.27,10.3,10.3,0,0,0-2.74.39,5.66,5.66,0,0,0-2.54,1.53,8.17,8.17,0,0,0-1.84,3.17,16.6,16.6,0,0,0-.71,5.32v21.22a33.12,33.12,0,0,1-11.12,0Z"/><path class="cls-3" d="M575.76,130.4h-5.09l-.39-1.57,14.64-18.71h1.8v11.82h9.48a17.52,17.52,0,0,1,.31,2.12c0,.62.08,1.28.08,2s0,1.44-.08,2.12a19.69,19.69,0,0,1-.31,2.27h-9.48v15.89a15.42,15.42,0,0,0,.4,3.92,5.93,5.93,0,0,0,1.13,2.35,3.79,3.79,0,0,0,1.84,1.17,9.37,9.37,0,0,0,2.58.32,13.5,13.5,0,0,0,2.31-.2l2-.35a14.58,14.58,0,0,1,.78,3.09,19.53,19.53,0,0,1,.24,2.86c0,.57,0,1.05,0,1.45s-.07.77-.12,1.13a31.56,31.56,0,0,1-7.44.86q-7.12,0-10.88-3.33t-3.76-10.84Z"/><path class="cls-4" d="M252.18,181v3.47h3.76v2h-3.76v7.8c0,1.79.51,2.8,2,2.8a5,5,0,0,0,1.53-.17l.12,2a7.51,7.51,0,0,1-2.33.35,3.76,3.76,0,0,1-2.84-1.1,5.63,5.63,0,0,1-1-3.79V186.5h-2.25v-2h2.25v-2.69Z"/><path class="cls-4" d="M271,195c0,1.52,0,2.84.12,4h-2.32l-.16-2.35h-.05a5.43,5.43,0,0,1-4.79,2.68c-2.26,0-5-1.28-5-6.33V184.5h2.63v8c0,2.75.86,4.63,3.22,4.63a3.8,3.8,0,0,0,3.47-2.42,3.73,3.73,0,0,0,.24-1.34V184.5H271Z"/><path class="cls-4" d="M275.35,189c0-1.7,0-3.16-.12-4.51h2.29l.12,2.87h.09a4.37,4.37,0,0,1,4-3.17,5.22,5.22,0,0,1,.71.06v2.48a4.06,4.06,0,0,0-.89-.06,3.66,3.66,0,0,0-3.53,3.34,8,8,0,0,0-.09,1.23V199h-2.62Z"/><path class="cls-4" d="M285.23,188.41c0-1.52,0-2.72-.12-3.91h2.33l.14,2.39h.06a5.35,5.35,0,0,1,4.79-2.69c2,0,5.1,1.2,5.1,6.15V199H294.9v-8.33c0-2.33-.86-4.27-3.34-4.27A3.8,3.8,0,0,0,288,189a3.69,3.69,0,0,0-.18,1.22V199h-2.62Z"/><path class="cls-4" d="M309.08,184.5l3.13,8.55c.36.94.72,2.08,1,2.94h.06c.27-.86.56-2,.92-3L317,184.5h2.78l-3.95,10.3c-1.88,5-3.16,7.47-5,9a7.5,7.5,0,0,1-3.22,1.68l-.67-2.18a6.76,6.76,0,0,0,2.3-1.29,8.21,8.21,0,0,0,2.21-2.92,2,2,0,0,0,.21-.63,1.65,1.65,0,0,0-.21-.69l-5.31-13.32Z"/><path class="cls-4" d="M335,191.61c0,5.34-3.74,7.67-7.19,7.67-3.89,0-6.94-2.86-6.94-7.43,0-4.81,3.2-7.65,7.17-7.65,4.16,0,7,3,7,7.41m-11.43.15c0,3.16,1.79,5.55,4.35,5.55s4.4-2.36,4.4-5.62c0-2.44-1.22-5.52-4.33-5.52s-4.42,2.87-4.42,5.59"/><path class="cls-4" d="M350.37,195c0,1.52,0,2.84.11,4h-2.32L348,196.6H348a5.43,5.43,0,0,1-4.79,2.68c-2.27,0-5-1.28-5-6.33V184.5h2.63v8c0,2.75.86,4.63,3.22,4.63a3.79,3.79,0,0,0,3.47-2.42,3.73,3.73,0,0,0,.24-1.34V184.5h2.63Z"/><path class="cls-4" d="M354.71,189c0-1.7,0-3.16-.11-4.51h2.29l.12,2.87h.09a4.37,4.37,0,0,1,4-3.17,5.36,5.36,0,0,1,.71.06v2.48a4.06,4.06,0,0,0-.9-.06,3.67,3.67,0,0,0-3.52,3.34,8,8,0,0,0-.08,1.23V199h-2.64Z"/><path class="cls-4" d="M381.11,198.45a10.4,10.4,0,0,1-4.16.83c-4.35,0-7.19-2.95-7.19-7.38a7.36,7.36,0,0,1,7.76-7.7,8.12,8.12,0,0,1,3.65.78l-.6,2a6.42,6.42,0,0,0-3.05-.69c-3.32,0-5.1,2.48-5.1,5.47,0,3.34,2.14,5.41,5,5.41a7.64,7.64,0,0,0,3.22-.69Z"/><path class="cls-4" d="M397.07,191.61c0,5.34-3.72,7.67-7.19,7.67-3.88,0-6.93-2.86-6.93-7.43,0-4.81,3.2-7.65,7.17-7.65,4.15,0,6.95,3,6.95,7.41m-11.43.15c0,3.16,1.79,5.55,4.36,5.55s4.39-2.36,4.39-5.62c0-2.44-1.23-5.52-4.33-5.52s-4.42,2.87-4.42,5.59"/><path class="cls-4" d="M400.38,188.41c0-1.52,0-2.72-.12-3.91h2.34l.14,2.39h.07a5.33,5.33,0,0,1,4.77-2.69c2,0,5.11,1.2,5.11,6.15V199h-2.63v-8.33c0-2.33-.87-4.27-3.34-4.27A3.77,3.77,0,0,0,403.2,189a3.68,3.68,0,0,0-.19,1.22V199h-2.63Z"/><path class="cls-4" d="M420,181v3.47h3.76v2H420v7.8c0,1.79.5,2.8,2,2.8a4.91,4.91,0,0,0,1.52-.17l.12,2a7.46,7.46,0,0,1-2.33.35,3.77,3.77,0,0,1-2.84-1.1,5.69,5.69,0,0,1-1-3.79V186.5h-2.24v-2h2.24v-2.69Z"/><path class="cls-4" d="M428,192.21c.05,3.55,2.3,5,4.95,5a9.52,9.52,0,0,0,4-.74l.49,1.88a12,12,0,0,1-4.84.92c-4.46,0-7.11-2.95-7.11-7.31s2.56-7.77,6.78-7.77c4.75,0,6,4.12,6,6.78a5.76,5.76,0,0,1-.09,1.23Zm7.7-1.89c0-1.64-.68-4.24-3.64-4.24-2.69,0-3.82,2.42-4,4.24Z"/><path class="cls-4" d="M441.49,188.41c0-1.52,0-2.72-.12-3.91h2.33l.15,2.39h.06a5.34,5.34,0,0,1,4.77-2.69c2,0,5.11,1.2,5.11,6.15V199h-2.62v-8.33c0-2.33-.87-4.27-3.35-4.27A3.78,3.78,0,0,0,444.3,189a3.68,3.68,0,0,0-.19,1.22V199h-2.62Z"/><path class="cls-4" d="M461.1,181v3.47h3.76v2H461.1v7.8c0,1.79.51,2.8,2,2.8a4.87,4.87,0,0,0,1.52-.17l.13,2a7.51,7.51,0,0,1-2.33.35,3.77,3.77,0,0,1-2.84-1.1,5.63,5.63,0,0,1-1-3.79V186.5h-2.24v-2h2.24v-2.69Z"/><path class="cls-4" d="M477.07,180.44a1.57,1.57,0,0,1-1.67,1.61,1.54,1.54,0,0,1-1.58-1.61,1.6,1.6,0,0,1,1.64-1.65,1.58,1.58,0,0,1,1.61,1.65m-2.93,4.06h2.64V199h-2.64Z"/><path class="cls-4" d="M481.13,188.41c0-1.52,0-2.72-.12-3.91h2.33l.15,2.39h.06a5.33,5.33,0,0,1,4.77-2.69c2,0,5.11,1.2,5.11,6.15V199H490.8v-8.33c0-2.33-.86-4.27-3.34-4.27a3.8,3.8,0,0,0-3.53,2.69,4,4,0,0,0-.17,1.22V199h-2.63Z"/><path class="cls-4" d="M500.74,181v3.47h3.76v2h-3.76v7.8c0,1.79.51,2.8,2,2.8a5,5,0,0,0,1.53-.17l.11,2a7.39,7.39,0,0,1-2.32.35,3.77,3.77,0,0,1-2.84-1.1,5.63,5.63,0,0,1-1-3.79V186.5h-2.23v-2h2.23v-2.69Z"/><path class="cls-4" d="M520.36,191.61c0,5.34-3.73,7.67-7.2,7.67-3.88,0-6.93-2.86-6.93-7.43,0-4.81,3.2-7.65,7.17-7.65,4.15,0,7,3,7,7.41m-11.44.15c0,3.16,1.79,5.55,4.36,5.55s4.39-2.36,4.39-5.62c0-2.44-1.22-5.52-4.33-5.52s-4.42,2.87-4.42,5.59"/><path class="cls-4" d="M531,184.5l2.83,8.09a37.46,37.46,0,0,1,1.17,3.74h.09c.33-1.2.75-2.39,1.22-3.74l2.81-8.09h2.75L536.2,199h-2.5l-5.5-14.45Z"/><path class="cls-4" d="M554.38,195.49a24.07,24.07,0,0,0,.21,3.46h-2.35l-.22-1.82h-.08a5.38,5.38,0,0,1-4.43,2.15,4.12,4.12,0,0,1-4.42-4.15c0-3.49,3.11-5.4,8.7-5.38v-.29c0-1.17-.34-3.35-3.29-3.32a6.9,6.9,0,0,0-3.79,1.08l-.59-1.77a9.26,9.26,0,0,1,4.77-1.25c4.42,0,5.49,3,5.49,5.88Zm-2.54-3.91c-2.86-.06-6.12.44-6.12,3.25a2.3,2.3,0,0,0,2.45,2.51,3.65,3.65,0,0,0,3.56-2.42,3.27,3.27,0,0,0,.11-.83Z"/><rect class="cls-4" x="558.62" y="177.75" width="2.62" height="21.2"/><path class="cls-4" d="M577.76,195c0,1.52,0,2.84.12,4h-2.33l-.15-2.35h-.06a5.4,5.4,0,0,1-4.78,2.68c-2.27,0-5-1.28-5-6.33V184.5h2.64v8c0,2.75.86,4.63,3.21,4.63a3.79,3.79,0,0,0,3.47-2.42,3.34,3.34,0,0,0,.25-1.34V184.5h2.62Z"/><path class="cls-4" d="M583.58,192.21c0,3.55,2.29,5,5,5a9.5,9.5,0,0,0,4-.74l.49,1.88a12,12,0,0,1-4.85.92c-4.45,0-7.1-2.95-7.1-7.31s2.56-7.77,6.78-7.77c4.74,0,6,4.12,6,6.78a6.51,6.51,0,0,1-.09,1.23Zm7.7-1.89c0-1.64-.69-4.24-3.65-4.24-2.68,0-3.81,2.42-4,4.24Z"/><polygon class="cls-5" points="125.06 127.39 125.06 178.56 75.46 205.13 75.46 154.08 125.06 127.39"/><polygon class="cls-6" points="25.62 127.39 25.62 178.56 75.46 205.13 75.46 154.08 25.62 127.39"/><polyline class="cls-6" points="75.23 49.59 75.23 100.76 125.06 127.44 125.06 76.28 75.23 49.59"/><rect x="65.58" y="123.37" width="16.78" height="16.77"/><rect x="65.09" y="105.16" width="9.19" height="9.19"/><rect x="35.16" y="83.88" width="9.19" height="9.19"/><rect x="49.33" y="68.39" width="9.19" height="9.19"/><rect x="45.39" y="117.8" width="6.13" height="6.13"/><polyline points="71.96 62.58 71.96 69.43 65.12 69.43 65.12 62.58"/><rect x="57.77" y="84.48" width="6.85" height="6.85"/><rect x="48.49" y="98.3" width="10.83" height="10.83"/><rect x="35.22" y="103.64" width="6.19" height="6.19"/></g></svg>