<svg xmlns="http://www.w3.org/2000/svg" viewBox="0 0 623.62 255.12"><defs><style>.cls-1{fill:#fff;}.cls-2{fill:#333;}</style></defs><title>remote-develloper</title><g id="BG"><rect class="cls-1" width="623.62" height="255.12"/></g><g id="Logo"><path class="cls-2" d="M92,98.49,78.45,78.92h-15V98.49H47.23V28.23H77.65c18.77,0,30.52,9.73,30.52,25.49,0,10.55-5.33,18.28-14.46,22.19l15.76,22.58Zm-15.25-57H63.49V66H76.75c9.93,0,15-4.61,15-12.25S86.68,41.48,76.75,41.48Z"/><path class="cls-2" d="M173,75.91H132.14c1.51,6.72,7.24,10.84,15.46,10.84a18.34,18.34,0,0,0,13.56-5.22l8.33,9c-5,5.72-12.55,8.74-22.29,8.74-18.66,0-30.82-11.75-30.82-27.81s12.35-27.8,28.82-27.8c15.86,0,28.1,10.64,28.1,28C173.3,72.9,173.1,74.6,173,75.91ZM132,66.78h26.6A12.84,12.84,0,0,0,145.3,55.53C138.17,55.53,133.05,59.85,132,66.78Z"/><path class="cls-2" d="M275.38,67.58V98.49H259.73V70c0-8.74-3.92-12.75-10.25-12.75-7,0-11.94,4.51-11.94,14.15v27.1H221.88V70c0-8.74-3.71-12.75-10.24-12.75-6.92,0-11.84,4.51-11.84,14.15v27.1H184.14v-54h15v6.22c4-4.62,10-7,17-7,7.53,0,13.95,2.91,17.76,8.83,4.32-5.52,11.35-8.83,19.48-8.83C266.15,43.69,275.38,51.11,275.38,67.58Z"/><path class="cls-2" d="M286.82,71.49c0-16.26,12.54-27.8,29.71-27.8s29.61,11.54,29.61,27.8S333.69,99.3,316.53,99.3,286.82,87.75,286.82,71.49Zm43.46,0c0-9.34-5.92-15-13.75-15s-13.85,5.62-13.85,15,6,15,13.85,15S330.28,80.83,330.28,71.49Z"/><path class="cls-2" d="M391.4,95.88c-3.21,2.31-7.93,3.42-12.75,3.42-12.74,0-20.17-6.53-20.17-19.38V57.74h-8.33V45.69h8.33V32.54h15.66V45.69h13.45V57.74H374.14v22c0,4.62,2.51,7.13,6.72,7.13a10.55,10.55,0,0,0,6.33-2Z"/><path class="cls-2" d="M451.23,75.91H410.37c1.51,6.72,7.23,10.84,15.46,10.84a18.31,18.31,0,0,0,13.55-5.22l8.33,9c-5,5.72-12.54,8.74-22.28,8.74-18.67,0-30.82-11.75-30.82-27.81s12.35-27.8,28.81-27.8c15.86,0,28.11,10.64,28.11,28C451.53,72.9,451.32,74.6,451.23,75.91Zm-41.06-9.13h26.6a12.83,12.83,0,0,0-13.25-11.25C416.39,55.53,411.28,59.85,410.17,66.78Z"/><path class="cls-2" d="M47.23,141.15H79.15c23,0,38.75,13.85,38.75,35.13s-15.76,35.14-38.75,35.14H47.23Zm31.12,56.92c14,0,23.09-8.33,23.09-21.79S92.3,154.5,78.35,154.5H63.49v43.57Z"/><path class="cls-2" d="M181.43,188.83H140.58c1.5,6.73,7.23,10.85,15.46,10.85a18.37,18.37,0,0,0,13.55-5.22l8.33,9c-5,5.72-12.55,8.73-22.28,8.73-18.67,0-30.82-11.74-30.82-27.81s12.34-27.8,28.81-27.8c15.86,0,28.1,10.64,28.1,28C181.73,185.82,181.53,187.53,181.43,188.83Zm-41.05-9.13H167a12.84,12.84,0,0,0-13.25-11.24C146.6,168.46,141.48,172.77,140.38,179.7Z"/><path class="cls-2" d="M245.17,157.42l-22.79,54H206.22l-22.68-54H199.7l15,36.73,15.46-36.73Z"/><path class="cls-2" d="M302.78,188.83H261.92c1.51,6.73,7.23,10.85,15.46,10.85a18.38,18.38,0,0,0,13.56-5.22l8.33,9c-5,5.72-12.55,8.73-22.29,8.73-18.67,0-30.81-11.74-30.81-27.81s12.34-27.8,28.8-27.8c15.86,0,28.11,10.64,28.11,28C303.08,185.82,302.88,187.53,302.78,188.83Zm-41.06-9.13h26.6a12.82,12.82,0,0,0-13.24-11.24C268,168.46,262.83,172.77,261.72,179.7Z"/><path class="cls-2" d="M313.92,136.94h15.65v74.48H313.92Z"/><path class="cls-2" d="M340.11,184.41c0-16.26,12.55-27.8,29.72-27.8s29.61,11.54,29.61,27.8S387,212.22,369.83,212.22,340.11,200.68,340.11,184.41Zm43.47,0c0-9.33-5.93-14.95-13.75-14.95S356,175.08,356,184.41s6,15,13.86,15S383.58,193.75,383.58,184.41Z"/><path class="cls-2" d="M468.69,184.41c0,17-11.74,27.81-26.9,27.81-6.72,0-12.24-2.11-16.26-6.52v25.19H409.87V157.42h15v6.22c3.91-4.72,9.74-7,17-7C457,156.61,468.69,167.45,468.69,184.41Zm-15.86,0c0-9.33-5.92-14.95-13.75-14.95s-13.75,5.62-13.75,14.95,5.92,15,13.75,15S452.83,193.75,452.83,184.41Z"/><path class="cls-2" d="M531.72,188.83H490.87c1.5,6.73,7.23,10.85,15.46,10.85a18.35,18.35,0,0,0,13.55-5.22l8.33,9c-5,5.72-12.55,8.73-22.29,8.73-18.66,0-30.81-11.74-30.81-27.81s12.35-27.8,28.81-27.8c15.86,0,28.11,10.64,28.11,28C532,185.82,531.82,187.53,531.72,188.83Zm-41.05-9.13h26.6A12.82,12.82,0,0,0,504,168.46C496.89,168.46,491.77,172.77,490.67,179.7Z"/><path class="cls-2" d="M576.39,156.61v14.45c-1.31-.09-2.31-.2-3.52-.2-8.63,0-14.35,4.72-14.35,15.06v25.5H542.86v-54h15v7.12C561.63,159.32,568.06,156.61,576.39,156.61Z"/></g></svg>