<svg xmlns="http://www.w3.org/2000/svg" viewBox="0 0 623.62 255.12"><defs><style>.cls-1{fill:#fff;}.cls-2{fill:#204ecf;fill-rule:evenodd;}</style></defs><title>toptal</title><g id="BG"><rect class="cls-1" width="623.62" height="255.12"/></g><g id="Logo"><path class="cls-2" d="M50.31,144l43.84-44.4,9,9.15L59.33,153.18l-9-9.14Zm86.54-31.15L64,39.13,49.25,54,76.57,81.7,17.62,141.38l72.86,73.76,14.73-14.91L77.89,172.55l59-59.66Zm50.22-52.34v22.6h24.25v13H187.07v50.85c0,11.69,3.27,18.31,12.7,18.31a31.61,31.61,0,0,0,9.82-1.16l.76,13.05a45.55,45.55,0,0,1-15,2.34c-7.89,0-14.24-2.74-18.29-7.21-4.61-5.26-6.54-13.64-6.54-24.75V96.2H156.09v-13h14.43V65.62l16.55-5.07Zm41.64,69.94c0,20.65,11.54,36.23,28.09,36.23,16.17,0,28.29-15.39,28.29-36.62,0-16-7.89-36-27.9-36-19.82,0-28.48,18.7-28.48,36.43Zm73.7-1c0,34.87-24.06,50.07-46.37,50.07-25,0-44.65-18.71-44.65-48.51,0-31.37,20.59-49.88,46.19-49.88,26.74,0,44.83,19.68,44.83,48.32Zm25.17,9.54a26.89,26.89,0,0,0,.77,7c3.08,11.88,13.27,20.06,25.4,20.06,17.89,0,28.28-14.81,28.28-36.43,0-18.7-9.81-34.87-27.7-34.87-11.55,0-22.52,8.18-25.6,21a28,28,0,0,0-1.15,6.82v16.36Zm-16.74-25.13c0-12.08-.39-21.82-.77-30.78h15l1,16.17h.38c6.74-11.49,17.9-18.12,33.1-18.12,22.71,0,39.64,19.29,39.64,47.73,0,33.9-20.59,50.66-42.52,50.66-12.32,0-23.1-5.46-28.68-14.81h-.38V216H310.84ZM431.49,60.55v22.6h24.24v13H431.49v50.85c0,11.69,3.27,18.31,12.7,18.31A31.63,31.63,0,0,0,454,164.2l.77,13.05a45.67,45.67,0,0,1-15,2.34c-7.89,0-14.24-2.74-18.28-7.21-4.62-5.26-6.54-13.64-6.54-24.75V96.2H400.5v-13h14.44V65.62l16.55-5.07Zm85,68.77C498,128.93,477,132.24,477,150.56c0,11.29,7.31,16.36,15.78,16.36,12.31,0,20.21-7.79,22.9-15.78a19.5,19.5,0,0,0,.77-5.45V129.32Zm16.36,25.52a160.49,160.49,0,0,0,1.34,22.6H519l-1.34-11.88H517c-5.21,7.4-15.2,14-28.48,14-18.87,0-28.48-13.45-28.48-27.09,0-22.79,20-35.26,56-35.06v-2c0-7.6-2.11-21.82-21.17-21.62-8.85,0-17.89,2.53-24.43,7l-3.85-11.49c7.69-4.88,19.05-8.19,30.79-8.19,28.48,0,35.41,19.68,35.41,38.38Zm12.54,22.6H562.3V39.13H545.36ZM606,55.24a16.14,16.14,0,1,1-16.14-16.13A16.1,16.1,0,0,1,606,55.24Zm-2.66,0a13.48,13.48,0,1,0-13.48,13.48A13.41,13.41,0,0,0,603.34,55.24Zm-5.71,9.29H594.2l-4.79-7.31h-3v7.31h-2.82V46h7.54c3.12,0,6.24,2.2,6.24,5.63a5.41,5.41,0,0,1-4.72,5.48l5,7.38Zm-3.12-12.86a3.31,3.31,0,0,0-3.35-3.28h-4.72v6.4h4.72a3.28,3.28,0,0,0,3.35-3.12Z"/></g></svg>