<?xml version="1.0" encoding="utf-8"?>
<!-- Generator: Adobe Illustrator 16.0.3, SVG Export Plug-In . SVG Version: 6.00 Build 0)  -->
<!DOCTYPE svg PUBLIC "-//W3C//DTD SVG 1.1//EN" "http://www.w3.org/Graphics/SVG/1.1/DTD/svg11.dtd">
<svg version="1.1" xmlns="http://www.w3.org/2000/svg" xmlns:xlink="http://www.w3.org/1999/xlink" x="0px" y="0px" width="623.6px"
	 height="255.1px" viewBox="0 0 623.6 255.1" style="enable-background:new 0 0 623.6 255.1;" xml:space="preserve">
<style type="text/css">
<![CDATA[
	.st0{fill:#FFFFFF;}
	.st1{fill:none;}
	.st2{fill:#041B55;}
]]>
</style>
<g id="BG">
	<rect class="st0" width="623.6" height="255.1"/>
</g>
<g id="Logo">
	<g id="blue_Voxnest" transform="translate(4872.5 -12016.5)">
		<path id="Union_14" class="st1" d="M-4935.2,12286.4v-284.6h749v284.6H-4935.2z"/>
		<g id="Group_1030" transform="translate(-4798.778 12090.319)">
			<path id="Path_1052" class="st2" d="M-10.7,4.6L5.6,46.4L21.9,4.6h33.7L18,101h-25L-44.4,4.6H-10.7z"/>
			<path id="Path_1053" class="st2" d="M48.5,52.6c-0.1-6.5,1.2-13,3.9-18.8c2.5-5.7,6-11,10.4-15.5c4.4-4.5,9.6-8,15.4-10.4
				c6-2.6,12.4-3.9,18.8-3.9c6.5,0,12.9,1.2,18.8,3.6c5.7,2.5,11,6,15.4,10.4c4.5,4.4,8,9.6,10.4,15.5c2.6,6,3.9,12.4,3.9,18.8
				c0.1,6.5-1.2,13-3.9,18.8c-2.5,5.7-6,11-10.4,15.5c-4.4,4.5-9.6,8-15.4,10.4c-12,5.1-25.7,5.1-37.7,0c-5.7-2.5-11-6-15.4-10.4
				c-4.5-4.4-8-9.6-10.4-15.5C49.6,65.5,48.4,59.1,48.5,52.6z M77.5,52.6c0,2.6,0.5,5.1,1.6,7.5c1,2.4,2.4,4.4,4.2,6.1
				c1.8,1.8,3.9,3.2,6.1,4.2c2.4,1,4.9,1.6,7.5,1.6s5.1-0.5,7.5-1.6c2.4-1,4.4-2.4,6.1-4.2c1.7-1.8,3.1-3.9,4.2-6.1
				c1-2.4,1.6-4.9,1.6-7.5c0-2.6-0.5-5.1-1.6-7.5c-1-2.4-2.4-4.4-4.2-6.1c-1.7-1.7-3.9-3.1-6.1-4.2c-2.4-1-4.9-1.6-7.5-1.6
				s-5.1,0.5-7.5,1.6c-2.4,1-4.4,2.4-6.1,4.2c-1.7,1.8-3.2,3.9-4.2,6.1C78,47.5,77.5,50.1,77.5,52.6z"/>
			<path id="Path_1054" class="st2" d="M166,51L140.5,4.6h33.7l8.7,15.9l8.7-15.9h33.7L199.7,51L227,101h-33.7l-10.7-19.2L172.1,101
				h-33.5L166,51z"/>
			<path id="Path_1055" class="st2" d="M229.3,4.6h25.3l26.6,37.2V4.6h30.2V101H286l-26.3-37v37h-30.5V4.6z"/>
			<path id="Path_1056" class="st2" d="M322.1,4.6h56.7v25.2h-26v10.7h25.6v24h-25.6v11.1h27V101H322V4.6H322.1z"/>
			<path id="Path_1057" class="st2" d="M390,70.4c2.1,0.6,4.2,1.2,6.5,1.6c1.9,0.4,4,0.9,6.5,1.3c2.4,0.3,4.9,0.4,7.2,0.4
				c4.2,0,6.5-1.6,6.5-4.9c-0.1-1.5-0.9-2.7-2-3.6c-1.2-1.2-3-2.6-5.1-4.2c-2-1.6-4.2-3.2-6.5-5.1c-2.4-2-4.5-4.1-6.5-6.5
				c-2-2.5-3.7-5.2-5.1-8.1c-1.4-3.4-2-7-2-10.6c-0.1-4,0.8-8,2.4-11.6c1.6-3.2,3.9-6.2,6.7-8.5c2.9-2.4,6.4-4.1,10-5.1
				c4-1.2,8-1.9,12.1-1.9c2.2,0,4.5,0.3,6.7,0.4c2.2,0.2,4.2,0.4,6.1,0.6c2,0.3,4,0.6,6.1,0.9v26.2c-0.8,0-1.6-0.2-2.4-0.2
				c-0.8,0-1.6-0.2-2.4-0.2c-1,0-1.9-0.3-3-0.3h-2c-0.9,0-1.6,0.1-2.4,0.4c-0.7,0.2-1.4,0.5-2,1c-0.6,0.5-0.9,1.3-0.7,2
				c0,0.7,0.6,1.6,1.9,2.9c1.5,1.4,3,2.6,4.6,3.9c1.9,1.4,3.9,3.2,6.1,5.2c2.2,2,4.2,4.2,6.1,6.7c1.9,2.6,3.5,5.5,4.6,8.5
				c1.2,3.5,1.9,7.1,1.9,10.7c0,4-0.6,7.9-2,11.6c-1.2,3.5-3.4,6.7-6.1,9.4c-3,2.9-6.6,5-10.5,6.2c-4.9,1.6-10,2.4-15.2,2.2
				c-3.6,0-6.9-0.3-10-0.4c-3-0.4-5.6-0.9-8.1-1.2c-2.5-0.4-5-1-7.5-1.6v-28H390z"/>
			<path id="Path_1058" class="st2" d="M467.7,29.8h-17.8V4.6h67.3v25.2h-17.8v71h-31.8v-71H467.7z"/>
		</g>
	</g>
</g>
</svg>
