<?xml version="1.0" standalone="no"?>
<!DOCTYPE svg PUBLIC "-//W3C//DTD SVG 20010904//EN"
 "http://www.w3.org/TR/2001/REC-SVG-20010904/DTD/svg10.dtd">
<svg version="1.0" xmlns="http://www.w3.org/2000/svg"
 width="100.000000pt" height="89.000000pt" viewBox="0 0 100.000000 89.000000"
 preserveAspectRatio="xMidYMid meet">

<g transform="translate(0.000000,89.000000) scale(0.100000,-0.100000)"
fill="#000000" stroke="none">
<path d="M138 730 l-3 -155 -67 -3 -68 -3 0 -47 c0 -26 3 -84 7 -129 l6 -83
63 0 64 0 0 -104 0 -105 33 -3 c31 -3 32 -5 35 -50 l3 -48 295 0 294 0 0 50 0
50 89 0 90 0 5 163 c3 89 6 171 6 182 1 11 -2 44 -6 73 l-7 52 -48 0 -49 0 0
160 0 159 -370 -2 -369 -2 -3 -155z m492 5 c0 -20 115 -22 124 -2 4 6 4 1 1
-13 -2 -14 -5 -42 -5 -64 0 -32 -3 -37 -17 -31 -10 4 -38 10 -63 12 -35 4 -51
12 -72 36 -25 30 -25 32 -7 35 11 2 19 11 19 23 0 10 5 19 10 19 6 0 10 -7 10
-15z m-219 -49 c-22 -23 -25 -24 -46 -10 -13 8 -42 15 -64 16 -23 0 -41 4 -41
9 0 5 39 9 87 9 l86 0 -22 -24z m116 2 c13 -12 23 -25 23 -30 0 -4 -26 -8 -57
-8 l-57 0 29 30 c16 17 31 30 34 30 2 0 15 -10 28 -22z m114 -163 l47 -79 -43
-81 -43 -80 -90 -3 c-87 -2 -92 -1 -116 25 -14 14 -38 52 -55 84 -27 51 -29
60 -16 73 8 8 15 20 15 26 0 6 16 36 35 66 l36 55 92 -3 92 -4 46 -79z m71 61
c25 -6 26 -8 16 -36 -15 -43 -23 -44 -47 -4 -24 40 -26 55 -8 50 6 -3 24 -7
39 -10z m68 -142 c0 -103 -11 -129 -26 -62 -3 18 -11 40 -18 50 -8 13 -7 21 2
30 6 6 12 18 12 24 0 17 18 64 25 64 3 0 5 -48 5 -106z m-640 0 c0 -61 -4 -93
-10 -89 -11 7 -14 168 -3 178 12 13 13 7 13 -89z m610 -199 c0 -24 -3 -25 -60
-25 -47 0 -60 -3 -60 -15 0 -8 -5 -15 -11 -15 -6 0 -9 12 -7 28 3 26 6 27 61
30 31 2 57 7 57 12 0 6 5 10 10 10 6 0 10 -11 10 -25z m-250 -14 c0 -4 -11 -6
-25 -3 -14 2 -25 6 -25 8 0 2 11 4 25 4 14 0 25 -4 25 -9z m37 3 c-3 -3 -12
-4 -19 -1 -8 3 -5 6 6 6 11 1 17 -2 13 -5z"/>
</g>
</svg>
